{"glyphs":{"0":{"ha":944,"x_min":46,"x_max":899,"o":"m 472 990 q 785 856 672 990 q 899 485 899 722 q 785 115 899 249 q 472 -18 672 -18 q 163 111 276 -18 q 46 486 46 246 q 163 861 46 726 q 472 990 276 990 m 556 375 q 560 397 556 375 q 564 486 564 419 q 556 597 564 553 q 533 661 547 640 q 506 689 519 682 q 472 696 492 696 q 438 688 453 696 q 410 660 424 681 q 388 597 396 640 q 381 486 381 553 q 388 376 381 419 q 410 312 396 332 q 438 284 424 292 q 472 276 453 276 q 506 283 492 276 q 533 310 519 290 q 556 375 547 331 z "},"1":{"ha":563,"x_min":36,"x_max":507,"o":"m 36 682 l 36 971 l 507 971 l 507 1 l 179 1 l 179 682 l 36 682 z "},"2":{"ha":883,"x_min":29,"x_max":835,"o":"m 824 657 q 593 290 824 436 l 835 290 l 835 1 l 117 1 l 117 282 l 124 288 q 255 380 199 338 q 369 473 311 422 q 458 571 426 524 q 489 657 489 618 q 466 705 489 688 q 413 722 443 722 q 272 703 343 722 q 164 664 200 683 l 129 644 l 31 896 q 51 906 38 900 q 106 928 64 913 q 194 957 149 944 q 308 980 239 969 q 444 990 376 990 q 731 897 632 990 q 824 657 824 810 z "},"3":{"ha":854,"x_min":36,"x_max":808,"o":"m 701 506 q 808 299 808 419 q 708 69 808 153 q 401 -18 603 -18 q 237 1 308 -18 q 53 65 165 21 l 38 72 l 136 324 l 151 317 q 183 303 164 311 q 252 273 229 282 q 308 257 275 264 q 379 250 342 250 q 446 265 418 250 q 474 300 474 279 q 459 340 474 324 q 423 362 444 356 q 387 369 401 368 q 360 371 372 371 l 239 371 l 239 619 l 346 619 q 370 622 357 619 q 401 628 383 624 q 431 647 419 633 q 442 679 442 660 q 418 710 442 699 q 364 722 394 722 q 288 711 321 722 q 199 672 256 700 q 165 656 176 661 l 149 647 l 51 900 l 67 906 q 176 951 139 938 q 274 978 214 965 q 396 990 333 990 q 682 906 583 990 q 776 683 776 825 q 701 506 776 582 z "},"4":{"ha":950,"x_min":35,"x_max":910,"o":"m 789 971 l 789 451 l 910 451 l 910 203 l 789 203 l 789 1 l 461 1 l 461 203 l 35 203 l 35 440 l 471 971 l 789 971 m 364 451 l 461 451 l 461 571 l 364 451 z "},"5":{"ha":850,"x_min":33,"x_max":804,"o":"m 707 550 q 804 306 804 468 q 704 71 804 156 q 397 -18 599 -18 q 233 1 304 -18 q 49 65 161 21 l 33 72 l 132 324 l 147 317 q 179 303 158 313 q 248 273 225 282 q 304 257 271 264 q 375 250 338 250 q 441 267 413 250 q 469 321 469 285 q 454 369 469 354 q 407 385 439 385 l 106 385 l 179 971 l 746 971 l 746 682 l 431 682 l 425 632 q 707 550 613 631 z "},"6":{"ha":917,"x_min":46,"x_max":871,"o":"m 457 658 q 762 572 654 658 q 869 328 869 485 q 844 174 869 239 q 781 74 819 110 q 685 16 743 38 q 576 -12 628 -6 q 458 -18 524 -18 q 158 113 268 -18 q 46 486 46 246 q 162 862 46 733 q 501 990 278 990 q 833 906 667 990 l 847 899 l 750 649 l 733 656 q 604 708 654 693 q 500 722 554 722 q 406 654 436 722 q 457 658 432 658 m 536 378 q 499 469 536 443 q 424 470 461 494 q 386 389 386 446 q 408 308 386 339 q 467 276 431 276 q 519 307 503 276 q 536 378 536 338 z "},"7":{"ha":799,"x_min":35,"x_max":761,"o":"m 760 971 l 760 696 l 460 1 l 104 1 l 399 682 l 35 682 l 35 971 l 760 971 z "},"8":{"ha":943,"x_min":44,"x_max":899,"o":"m 799 507 q 899 303 899 421 q 785 67 899 153 q 472 -18 672 -18 q 158 67 271 -18 q 44 303 44 153 q 143 506 44 418 q 76 679 76 582 q 181 908 76 825 q 472 990 286 990 q 762 908 657 990 q 867 679 867 825 q 799 507 867 582 m 411 679 q 472 625 411 625 q 532 679 532 625 q 519 717 532 703 q 494 733 506 731 q 471 736 482 736 q 449 733 460 736 q 424 717 438 731 q 411 679 411 703 m 472 236 q 564 303 564 236 q 472 369 564 369 q 381 303 381 369 q 472 236 381 236 z "},"9":{"ha":914,"x_min":44,"x_max":871,"o":"m 460 314 q 154 401 263 314 q 46 644 46 488 q 71 798 46 733 q 135 899 96 863 q 231 956 174 935 q 340 984 289 978 q 458 990 392 990 q 757 860 647 990 q 869 486 869 726 q 810 241 869 357 q 644 53 750 125 q 414 -18 538 -18 q 82 67 249 -18 l 68 74 l 165 324 l 182 317 q 312 265 261 279 q 415 250 363 250 q 510 318 481 250 q 460 314 485 314 m 381 594 q 418 503 381 529 q 493 502 456 478 q 531 583 531 526 q 508 664 531 632 q 449 696 486 696 q 397 665 413 696 q 381 594 381 635 z "},"\u000b":{"ha":732,"x_min":69,"x_max":663,"o":"m 69 972 l 663 972 l 663 0 l 69 0 l 69 972 m 108 944 l 365 515 l 624 944 l 108 944 m 349 486 l 99 903 l 99 68 l 349 486 m 367 457 l 110 29 l 624 29 l 367 457 m 383 486 l 635 65 l 635 906 l 383 486 z "},"\f":{"ha":732,"x_min":69,"x_max":663,"o":"m 69 972 l 663 972 l 663 0 l 69 0 l 69 972 m 108 944 l 365 515 l 624 944 l 108 944 m 349 486 l 99 903 l 99 68 l 349 486 m 367 457 l 110 29 l 624 29 l 367 457 m 383 486 l 635 65 l 635 906 l 383 486 z "},"¤":{"ha":732,"x_min":69,"x_max":663,"o":"m 69 972 l 663 972 l 663 0 l 69 0 l 69 972 m 108 944 l 365 515 l 624 944 l 108 944 m 349 486 l 99 903 l 99 68 l 349 486 m 367 457 l 110 29 l 624 29 l 367 457 m 383 486 l 635 65 l 635 906 l 383 486 z "},"¦":{"ha":732,"x_min":69,"x_max":663,"o":"m 69 972 l 663 972 l 663 0 l 69 0 l 69 972 m 108 944 l 365 515 l 624 944 l 108 944 m 349 486 l 99 903 l 99 68 l 349 486 m 367 457 l 110 29 l 624 29 l 367 457 m 383 486 l 635 65 l 635 906 l 383 486 z "},"¨":{"ha":732,"x_min":69,"x_max":663,"o":"m 69 972 l 663 972 l 663 0 l 69 0 l 69 972 m 108 944 l 365 515 l 624 944 l 108 944 m 349 486 l 99 903 l 99 68 l 349 486 m 367 457 l 110 29 l 624 29 l 367 457 m 383 486 l 635 65 l 635 906 l 383 486 z "},"¬":{"ha":732,"x_min":69,"x_max":663,"o":"m 69 972 l 663 972 l 663 0 l 69 0 l 69 972 m 108 944 l 365 515 l 624 944 l 108 944 m 349 486 l 99 903 l 99 68 l 349 486 m 367 457 l 110 29 l 624 29 l 367 457 m 383 486 l 635 65 l 635 906 l 383 486 z "},"¯":{"ha":732,"x_min":69,"x_max":663,"o":"m 69 972 l 663 972 l 663 0 l 69 0 l 69 972 m 108 944 l 365 515 l 624 944 l 108 944 m 349 486 l 99 903 l 99 68 l 349 486 m 367 457 l 110 29 l 624 29 l 367 457 m 383 486 l 635 65 l 635 906 l 383 486 z "},"±":{"ha":732,"x_min":69,"x_max":663,"o":"m 69 972 l 663 972 l 663 0 l 69 0 l 69 972 m 108 944 l 365 515 l 624 944 l 108 944 m 349 486 l 99 903 l 99 68 l 349 486 m 367 457 l 110 29 l 624 29 l 367 457 m 383 486 l 635 65 l 635 906 l 383 486 z "},"´":{"ha":732,"x_min":69,"x_max":663,"o":"m 69 972 l 663 972 l 663 0 l 69 0 l 69 972 m 108 944 l 365 515 l 624 944 l 108 944 m 349 486 l 99 903 l 99 68 l 349 486 m 367 457 l 110 29 l 624 29 l 367 457 m 383 486 l 635 65 l 635 906 l 383 486 z "},"µ":{"ha":732,"x_min":69,"x_max":663,"o":"m 69 972 l 663 972 l 663 0 l 69 0 l 69 972 m 108 944 l 365 515 l 624 944 l 108 944 m 349 486 l 99 903 l 99 68 l 349 486 m 367 457 l 110 29 l 624 29 l 367 457 m 383 486 l 635 65 l 635 906 l 383 486 z "},"¶":{"ha":732,"x_min":69,"x_max":663,"o":"m 69 972 l 663 972 l 663 0 l 69 0 l 69 972 m 108 944 l 365 515 l 624 944 l 108 944 m 349 486 l 99 903 l 99 68 l 349 486 m 367 457 l 110 29 l 624 29 l 367 457 m 383 486 l 635 65 l 635 906 l 383 486 z "},"¸":{"ha":732,"x_min":69,"x_max":663,"o":"m 69 972 l 663 972 l 663 0 l 69 0 l 69 972 m 108 944 l 365 515 l 624 944 l 108 944 m 349 486 l 99 903 l 99 68 l 349 486 m 367 457 l 110 29 l 624 29 l 367 457 m 383 486 l 635 65 l 635 906 l 383 486 z "},"―":{"ha":732,"x_min":69,"x_max":663,"o":"m 69 972 l 663 972 l 663 0 l 69 0 l 69 972 m 108 944 l 365 515 l 624 944 l 108 944 m 349 486 l 99 903 l 99 68 l 349 486 m 367 457 l 110 29 l 624 29 l 367 457 m 383 486 l 635 65 l 635 906 l 383 486 z "},"‖":{"ha":732,"x_min":69,"x_max":663,"o":"m 69 972 l 663 972 l 663 0 l 69 0 l 69 972 m 108 944 l 365 515 l 624 944 l 108 944 m 349 486 l 99 903 l 99 68 l 349 486 m 367 457 l 110 29 l 624 29 l 367 457 m 383 486 l 635 65 l 635 906 l 383 486 z "},"‗":{"ha":732,"x_min":69,"x_max":663,"o":"m 69 972 l 663 972 l 663 0 l 69 0 l 69 972 m 108 944 l 365 515 l 624 944 l 108 944 m 349 486 l 99 903 l 99 68 l 349 486 m 367 457 l 110 29 l 624 29 l 367 457 m 383 486 l 635 65 l 635 906 l 383 486 z "},"‚":{"ha":732,"x_min":69,"x_max":663,"o":"m 69 972 l 663 972 l 663 0 l 69 0 l 69 972 m 108 944 l 365 515 l 624 944 l 108 944 m 349 486 l 99 903 l 99 68 l 349 486 m 367 457 l 110 29 l 624 29 l 367 457 m 383 486 l 635 65 l 635 906 l 383 486 z "},"‛":{"ha":732,"x_min":69,"x_max":663,"o":"m 69 972 l 663 972 l 663 0 l 69 0 l 69 972 m 108 944 l 365 515 l 624 944 l 108 944 m 349 486 l 99 903 l 99 68 l 349 486 m 367 457 l 110 29 l 624 29 l 367 457 m 383 486 l 635 65 l 635 906 l 383 486 z "},"‟":{"ha":732,"x_min":69,"x_max":663,"o":"m 69 972 l 663 972 l 663 0 l 69 0 l 69 972 m 108 944 l 365 515 l 624 944 l 108 944 m 349 486 l 99 903 l 99 68 l 349 486 m 367 457 l 110 29 l 624 29 l 367 457 m 383 486 l 635 65 l 635 906 l 383 486 z "},"‡":{"ha":732,"x_min":69,"x_max":663,"o":"m 69 972 l 663 972 l 663 0 l 69 0 l 69 972 m 108 944 l 365 515 l 624 944 l 108 944 m 349 486 l 99 903 l 99 68 l 349 486 m 367 457 l 110 29 l 624 29 l 367 457 m 383 486 l 635 65 l 635 906 l 383 486 z "},"‣":{"ha":732,"x_min":69,"x_max":663,"o":"m 69 972 l 663 972 l 663 0 l 69 0 l 69 972 m 108 944 l 365 515 l 624 944 l 108 944 m 349 486 l 99 903 l 99 68 l 349 486 m 367 457 l 110 29 l 624 29 l 367 457 m 383 486 l 635 65 l 635 906 l 383 486 z "},"․":{"ha":732,"x_min":69,"x_max":663,"o":"m 69 972 l 663 972 l 663 0 l 69 0 l 69 972 m 108 944 l 365 515 l 624 944 l 108 944 m 349 486 l 99 903 l 99 68 l 349 486 m 367 457 l 110 29 l 624 29 l 367 457 m 383 486 l 635 65 l 635 906 l 383 486 z "},"‥":{"ha":732,"x_min":69,"x_max":663,"o":"m 69 972 l 663 972 l 663 0 l 69 0 l 69 972 m 108 944 l 365 515 l 624 944 l 108 944 m 349 486 l 99 903 l 99 68 l 349 486 m 367 457 l 110 29 l 624 29 l 367 457 m 383 486 l 635 65 l 635 906 l 383 486 z "},"\u0000":{"ha":0,"x_min":0,"x_max":0,"o":""},"\n":{"ha":0,"x_min":0,"x_max":0,"o":""},"\r":{"ha":0,"x_min":0,"x_max":0,"o":""}," ":{"ha":525,"x_min":0,"x_max":0,"o":""},"!":{"ha":299,"x_min":50,"x_max":249,"o":"m 77 170 q 91 184 77 170 q 149 197 104 197 q 222 170 194 197 q 249 99 249 143 q 222 27 249 54 q 149 0 194 0 q 77 27 104 0 q 50 99 50 54 q 77 170 50 143 m 218 257 l 79 257 l 56 954 l 243 954 l 218 257 z "},"\"":{"ha":435,"x_min":36,"x_max":399,"o":"m 76 688 l 36 974 l 196 974 l 156 688 l 76 688 m 238 974 l 397 974 l 357 688 l 278 688 l 238 974 z "},"#":{"ha":1026,"x_min":46,"x_max":981,"o":"m 979 528 l 786 528 l 738 371 l 979 371 l 979 211 l 685 211 l 624 21 l 454 21 l 515 211 l 333 211 l 271 21 l 101 21 l 164 211 l 46 211 l 46 371 l 215 371 l 265 528 l 46 528 l 46 688 l 317 688 l 401 954 l 571 954 l 486 688 l 669 688 l 754 954 l 924 954 l 839 688 l 979 688 l 979 528 m 568 371 l 617 528 l 435 528 l 385 371 l 568 371 z "},"$":{"ha":719,"x_min":36,"x_max":676,"o":"m 333 665 q 358 631 333 649 q 421 597 383 614 q 502 553 458 581 q 583 492 546 525 q 646 407 621 460 q 671 290 671 354 q 658 210 671 249 q 616 139 644 172 q 538 85 588 106 q 419 61 488 64 l 419 -35 l 292 -35 l 292 67 q 50 129 165 81 l 36 135 l 117 342 l 132 335 q 172 315 144 329 q 224 290 200 301 q 278 265 247 279 q 331 244 308 251 q 375 233 354 238 q 407 235 396 229 q 418 256 418 240 q 393 297 418 275 q 331 340 368 319 q 249 390 293 360 q 168 452 206 419 q 106 535 131 485 q 81 644 81 586 q 144 797 81 735 q 292 876 207 858 l 292 978 l 419 978 l 419 879 q 661 814 526 869 l 675 808 l 594 601 l 579 607 q 403 682 439 671 q 333 665 333 701 z "},"%":{"ha":1104,"x_min":33,"x_max":1071,"o":"m 443 733 q 388 554 443 617 q 239 492 333 492 q 89 554 144 492 q 33 733 33 617 q 89 915 33 851 q 239 978 144 978 q 388 915 333 978 q 443 733 443 851 m 199 822 q 192 810 199 822 q 185 734 185 797 q 199 646 185 671 q 239 621 213 621 q 292 734 292 621 q 239 847 292 847 q 199 822 213 847 m 719 954 l 896 954 l 358 21 l 183 21 l 719 954 m 716 434 q 744 466 716 434 q 866 497 772 497 q 1015 434 960 497 q 1069 254 1069 371 q 1015 73 1069 136 q 866 10 960 10 q 716 74 772 10 q 660 254 660 138 q 716 434 660 371 m 865 140 q 919 253 919 140 q 865 367 919 367 q 825 342 839 367 q 811 254 811 317 q 825 166 811 192 q 865 140 839 140 z "},"&":{"ha":1065,"x_min":44,"x_max":996,"o":"m 844 189 l 996 47 l 763 47 l 721 85 l 704 78 q 465 26 596 26 q 347 33 401 26 q 235 59 292 40 q 137 108 178 78 q 70 188 96 138 q 44 304 44 238 q 76 415 44 368 q 176 501 107 461 l 217 525 l 176 547 q 76 715 76 604 q 169 884 76 821 q 417 947 261 947 q 668 878 579 947 q 757 681 757 808 q 742 599 757 638 q 703 535 728 561 q 656 492 678 508 q 608 461 633 475 l 575 444 l 719 307 l 735 342 q 760 451 756 390 l 926 451 q 857 208 921 307 l 844 189 m 417 781 q 351 755 379 781 q 324 681 324 729 q 351 606 324 632 q 417 579 379 579 q 483 605 456 579 q 510 681 510 631 q 483 755 510 729 q 417 781 456 781 m 539 199 l 592 208 l 376 411 l 360 403 q 293 304 293 372 q 298 276 293 290 q 318 240 303 261 q 372 206 333 219 q 468 193 411 193 q 539 199 506 193 z "},"'":{"ha":233,"x_min":36,"x_max":197,"o":"m 36 974 l 196 974 l 156 688 l 76 688 l 36 974 z "},"(":{"ha":517,"x_min":44,"x_max":447,"o":"m 275 743 q 254 682 275 743 q 233 463 233 621 q 275 182 233 304 q 419 -85 317 60 l 447 -125 l 293 -125 l 286 -114 q 113 163 160 64 q 44 462 44 307 q 113 763 44 617 q 286 1039 160 861 l 293 1050 l 447 1050 l 419 1010 q 275 743 317 865 z "},")":{"ha":517,"x_min":68,"x_max":472,"o":"m 403 763 q 472 462 472 617 q 403 163 472 307 q 231 -114 357 64 l 224 -125 l 69 -125 l 97 -85 q 242 182 200 60 q 283 463 283 304 q 242 743 283 621 q 97 1010 200 865 l 69 1050 l 224 1050 l 231 1039 q 403 763 357 861 z "},"*":{"ha":697,"x_min":36,"x_max":661,"o":"m 661 725 l 447 661 l 608 510 l 489 403 l 349 590 l 208 403 l 88 510 l 250 661 l 36 725 l 94 874 l 288 778 l 268 994 l 428 994 l 410 778 l 601 874 l 661 725 z "},"+":{"ha":583,"x_min":38,"x_max":546,"o":"m 371 546 l 544 546 l 544 386 l 371 386 l 371 213 l 211 213 l 211 386 l 38 386 l 38 546 l 211 546 l 211 719 l 371 719 l 371 546 z "},",":{"ha":343,"x_min":35,"x_max":306,"o":"m 74 230 q 93 248 74 230 q 171 267 111 267 q 267 230 231 267 q 304 133 304 193 q 239 -58 304 26 q 76 -199 174 -142 l 35 -160 q 109 -81 83 -119 q 144 3 135 -43 q 66 45 94 10 q 38 133 38 81 q 74 230 38 193 z "},"-":{"ha":617,"x_min":35,"x_max":582,"o":"m 314 533 q 582 538 432 533 q 571 361 574 464 q 301 365 419 365 q 35 361 186 365 q 46 538 44 446 q 314 533 196 533 z "},".":{"ha":343,"x_min":38,"x_max":306,"o":"m 74 230 q 93 248 74 230 q 171 267 111 267 q 267 230 231 267 q 304 133 304 193 q 267 37 304 74 q 171 0 231 0 q 74 37 111 0 q 38 133 38 74 q 74 230 38 193 z "},"/":{"ha":731,"x_min":69,"x_max":663,"o":"m 486 954 l 661 954 l 246 21 l 69 21 l 486 954 z "},":":{"ha":357,"x_min":44,"x_max":313,"o":"m 274 503 q 256 485 274 503 q 178 467 238 467 q 81 503 118 467 q 44 601 44 540 q 81 697 44 661 q 178 733 118 733 q 274 697 238 733 q 311 601 311 661 q 274 503 311 540 m 81 230 q 100 248 81 230 q 178 267 118 267 q 274 230 238 267 q 311 133 311 193 q 274 37 311 74 q 178 0 238 0 q 81 37 118 0 q 44 133 44 74 q 81 230 44 193 z "},";":{"ha":360,"x_min":44,"x_max":315,"o":"m 274 503 q 256 485 274 503 q 178 467 238 467 q 81 503 118 467 q 44 601 44 540 q 81 697 44 661 q 178 733 118 733 q 274 697 238 733 q 311 601 311 661 q 274 503 311 540 m 178 267 q 277 231 240 267 q 314 133 314 194 q 249 -58 314 26 q 86 -199 183 -142 l 44 -160 q 154 1 135 -85 q 74 44 104 8 q 44 133 44 79 q 81 230 44 193 q 178 267 118 267 z "},"=":{"ha":592,"x_min":42,"x_max":550,"o":"m 549 186 l 42 186 l 42 346 l 549 346 l 549 186 m 549 453 l 42 453 l 42 613 l 549 613 l 549 453 z "},"?":{"ha":569,"x_min":32,"x_max":532,"o":"m 268 974 q 464 897 397 974 q 531 707 531 819 q 515 594 531 643 q 474 521 499 546 q 422 475 450 496 q 370 442 394 454 q 329 411 346 431 q 313 367 313 392 l 161 367 q 177 458 161 418 q 217 524 193 499 q 264 573 240 550 q 303 624 288 596 q 319 688 319 653 q 253 754 319 754 q 205 744 231 754 q 162 724 179 733 q 101 686 144 714 l 32 892 q 147 953 92 933 q 268 974 201 974 m 147 175 q 161 189 147 175 q 225 203 176 203 q 303 175 274 203 q 333 101 333 147 q 303 28 333 56 q 225 0 274 0 q 147 28 176 0 q 117 101 117 56 q 147 175 117 147 z "},"@":{"ha":1379,"x_min":43,"x_max":1339,"o":"m 689 974 q 953 931 831 974 q 1160 818 1076 889 q 1291 654 1243 747 q 1339 460 1339 561 q 1320 313 1339 378 q 1271 206 1301 247 q 1199 139 1240 165 q 1117 101 1158 113 q 1032 90 1076 90 q 867 156 925 90 q 669 57 797 57 q 597 64 632 57 q 522 92 561 71 q 453 145 482 113 q 404 234 424 178 q 385 363 385 290 q 406 487 385 432 q 463 577 428 542 q 544 637 497 613 q 638 671 590 661 q 736 681 686 681 q 963 619 871 681 l 963 350 q 978 284 963 311 q 1031 257 994 257 q 1098 308 1078 257 q 1118 460 1118 360 q 1088 588 1118 526 q 1002 699 1057 650 q 865 778 947 749 q 689 807 783 807 q 378 687 494 807 q 263 363 263 567 q 390 39 263 160 q 731 -82 517 -82 q 939 -46 843 -82 l 1017 -203 q 733 -250 888 -250 q 372 -173 529 -250 q 129 44 215 -96 q 43 363 43 183 q 222 805 43 636 q 689 974 400 974 m 749 344 l 749 501 q 704 518 738 518 q 632 481 660 518 q 604 367 604 444 q 625 263 604 301 q 678 224 646 224 q 749 344 749 224 z "},"A":{"ha":1089,"x_min":-12,"x_max":1101,"o":"m 711 974 l 1101 0 l 742 0 l 714 82 l 704 114 l 385 114 l 347 0 l -12 0 l 376 974 l 711 974 m 468 367 l 621 367 l 544 600 l 468 367 z "},"B":{"ha":969,"x_min":54,"x_max":947,"o":"m 861 532 q 946 324 946 444 l 946 300 q 858 88 946 175 q 646 0 771 0 l 299 0 l 56 0 l 56 972 l 322 972 l 322 974 l 597 974 q 808 885 721 974 q 896 674 896 797 q 861 532 896 599 m 388 681 l 388 624 l 546 624 q 565 632 557 624 q 574 652 574 640 q 565 672 574 664 q 546 681 557 681 l 388 681 m 624 333 q 615 359 624 347 q 590 374 606 371 l 553 374 l 553 372 l 388 372 l 388 292 l 582 292 q 612 303 600 292 q 624 333 624 315 z "},"C":{"ha":1038,"x_min":18,"x_max":1022,"o":"m 672 376 l 1022 376 q 856 88 989 194 q 525 -19 722 -19 q 159 120 299 -19 q 19 486 19 260 q 159 852 19 713 q 525 992 299 992 q 856 885 722 992 q 1022 596 989 778 l 672 596 q 525 693 629 693 q 403 637 449 693 q 358 486 358 581 q 403 335 358 392 q 525 278 449 278 q 672 376 629 278 z "},"D":{"ha":988,"x_min":56,"x_max":968,"o":"m 828 843 q 968 486 968 711 q 828 129 968 261 q 461 0 690 0 l 56 0 l 56 972 l 461 972 q 828 843 690 972 m 585 343 q 607 369 585 343 q 629 486 629 394 q 585 629 629 578 q 461 681 540 681 l 388 681 l 388 292 l 461 292 q 585 343 540 292 z "},"E":{"ha":800,"x_min":56,"x_max":769,"o":"m 388 292 l 769 292 l 769 0 l 56 0 l 56 972 l 742 972 l 742 681 l 388 681 l 388 613 l 672 613 l 672 360 l 388 360 l 388 292 z "},"F":{"ha":701,"x_min":53,"x_max":689,"o":"m 53 19 l 53 953 l 688 953 l 688 700 l 346 700 l 346 593 l 618 593 l 618 379 l 346 379 l 346 19 l 53 19 z "},"G":{"ha":1069,"x_min":19,"x_max":1032,"o":"m 478 572 l 1032 572 l 1032 0 l 779 0 l 779 69 q 669 -1 731 18 q 525 -19 607 -19 q 159 120 299 -19 q 19 486 19 260 q 159 852 19 713 q 525 992 299 992 q 838 899 708 992 q 1011 646 967 806 l 640 646 q 525 693 596 693 q 403 637 449 693 q 358 486 358 581 q 403 335 358 392 q 525 278 449 278 q 633 319 590 278 l 478 319 l 478 572 z "},"H":{"ha":1031,"x_min":56,"x_max":975,"o":"m 643 613 l 643 972 l 975 972 l 975 0 l 643 0 l 643 360 l 388 360 l 388 0 l 56 0 l 56 972 l 388 972 l 388 613 l 643 613 z "},"I":{"ha":443,"x_min":56,"x_max":388,"o":"m 388 0 l 56 0 l 56 972 l 388 972 l 388 0 z "},"J":{"ha":721,"x_min":-6,"x_max":675,"o":"m 342 972 l 674 972 l 674 315 q 574 83 674 175 q 297 -14 469 -14 q 6 72 115 -14 l -6 81 l 92 363 l 113 350 q 203 298 175 311 q 264 285 231 285 q 288 288 278 285 q 312 303 297 292 q 334 349 326 315 q 342 435 342 383 l 342 972 z "},"K":{"ha":1035,"x_min":56,"x_max":1043,"o":"m 679 606 l 1042 0 l 669 0 l 451 364 l 388 296 l 388 0 l 56 0 l 56 972 l 388 972 l 388 722 l 622 972 l 1024 972 l 679 606 z "},"L":{"ha":747,"x_min":56,"x_max":743,"o":"m 388 292 l 742 292 l 742 0 l 56 0 l 56 972 l 388 972 l 388 292 z "},"M":{"ha":1268,"x_min":54,"x_max":1213,"o":"m 881 972 l 1213 972 l 1213 0 l 881 0 l 881 429 l 760 168 l 682 0 l 586 0 l 508 168 l 388 428 l 388 0 l 56 0 l 56 972 l 388 972 l 388 971 l 633 440 l 881 972 z "},"N":{"ha":1051,"x_min":56,"x_max":996,"o":"m 664 972 l 996 972 l 996 0 l 664 0 l 388 407 l 388 0 l 56 0 l 56 972 l 388 972 l 664 506 l 664 972 z "},"O":{"ha":1051,"x_min":19,"x_max":1032,"o":"m 159 852 q 229 922 159 852 q 526 992 299 992 q 892 852 753 992 q 1032 486 1032 713 q 892 120 1032 260 q 526 -19 753 -19 q 159 120 299 -19 q 19 486 19 260 q 159 852 19 713 m 647 335 q 670 363 647 335 q 693 486 693 392 q 647 637 693 581 q 525 693 601 693 q 403 637 449 693 q 358 486 358 581 q 403 335 358 392 q 525 278 449 278 q 647 335 601 278 z "},"P":{"ha":929,"x_min":56,"x_max":921,"o":"m 586 972 q 822 874 725 972 q 919 639 919 776 q 828 410 919 506 q 606 306 738 314 l 388 306 l 388 0 l 56 0 l 56 972 l 385 972 l 543 972 l 586 972 m 556 599 q 585 610 574 599 q 597 640 597 622 q 585 669 597 657 q 556 681 574 681 l 388 681 l 388 599 l 556 599 z "},"Q":{"ha":1058,"x_min":19,"x_max":1032,"o":"m 1032 486 q 917 147 1032 282 l 1011 39 l 786 -157 l 656 -7 q 525 -19 593 -19 q 159 120 299 -19 q 19 486 19 260 q 159 852 19 713 q 526 992 299 992 q 892 852 753 992 q 1032 486 1032 713 m 403 637 q 381 609 403 637 q 358 486 358 581 q 403 335 358 392 q 525 278 449 278 q 647 335 601 278 q 693 486 693 392 q 647 637 693 581 q 525 693 601 693 q 403 637 449 693 z "},"R":{"ha":993,"x_min":56,"x_max":993,"o":"m 993 0 l 629 0 l 436 306 l 388 306 l 388 0 l 56 0 l 56 972 l 385 972 l 543 972 l 586 972 q 822 874 725 972 q 919 639 919 776 q 876 473 919 549 q 757 353 832 397 l 993 0 m 388 681 l 388 599 l 556 599 q 585 610 574 599 q 597 639 597 622 q 585 668 597 656 q 556 681 574 681 l 388 681 z "},"S":{"ha":899,"x_min":56,"x_max":843,"o":"m 432 711 q 463 675 432 696 q 538 633 493 654 q 635 576 582 611 q 733 502 688 542 q 808 399 778 463 q 838 264 838 336 q 819 162 838 210 q 764 72 801 114 q 659 5 726 29 q 501 -19 592 -19 q 74 64 278 -19 l 56 71 l 160 342 l 179 333 q 478 224 411 228 q 518 246 518 221 q 488 287 518 264 q 412 332 457 310 q 314 389 367 354 q 216 464 261 424 q 141 566 171 504 q 111 700 111 628 q 163 860 111 789 q 292 967 214 931 q 457 1003 371 1003 q 513 1001 485 1003 q 563 996 542 999 q 612 985 583 993 q 655 974 640 978 q 700 958 669 969 q 740 943 731 947 q 784 925 750 939 q 825 908 818 911 l 843 901 l 733 610 l 715 618 q 651 650 694 628 q 574 688 607 672 q 506 717 542 703 q 451 730 471 731 q 432 711 432 729 z "},"T":{"ha":844,"x_min":3,"x_max":842,"o":"m 3 681 l 3 972 l 842 972 l 842 681 l 588 681 l 588 0 l 257 0 l 257 681 l 3 681 z "},"U":{"ha":967,"x_min":40,"x_max":926,"o":"m 594 389 l 594 972 l 925 972 l 925 422 q 796 110 925 239 q 483 -19 667 -19 q 170 110 300 -19 q 40 422 40 239 l 40 972 l 372 972 l 372 389 q 405 310 372 343 q 483 278 438 278 q 562 310 529 278 q 594 389 594 343 z "},"V":{"ha":1046,"x_min":-12,"x_max":1058,"o":"m 522 438 l 699 972 l 1058 972 l 669 0 l 376 0 l 372 13 l -12 972 l 347 972 l 522 438 z "},"W":{"ha":1451,"x_min":-11,"x_max":1461,"o":"m 961 518 l 1103 972 l 1461 972 l 1128 0 l 832 0 l 725 461 l 618 0 l 324 0 l -10 972 l 349 972 l 490 518 l 615 972 l 842 972 l 961 518 z "},"X":{"ha":986,"x_min":-4,"x_max":990,"o":"m 619 972 l 989 972 l 678 486 l 989 0 l 619 0 l 493 199 l 365 0 l -4 0 l 308 486 l -4 972 l 365 972 l 493 774 l 619 972 z "},"Y":{"ha":1046,"x_min":-19,"x_max":1065,"o":"m 522 731 l 675 972 l 1065 972 l 689 392 l 689 0 l 357 0 l 357 392 l -19 972 l 371 972 l 522 731 z "},"Z":{"ha":829,"x_min":36,"x_max":793,"o":"m 792 972 l 792 693 l 435 292 l 792 292 l 792 0 l 36 0 l 36 279 l 393 681 l 36 681 l 36 972 l 792 972 z "},"[":{"ha":272,"x_min":56,"x_max":357,"o":"m 356 1007 l 215 1007 l 215 -74 l 356 -74 l 356 -181 l 56 -181 l 56 1114 l 356 1114 l 356 1007 z "},"\\":{"ha":731,"x_min":69,"x_max":663,"o":"m 246 954 l 661 21 l 486 21 l 69 954 l 246 954 z "},"]":{"ha":272,"x_min":-85,"x_max":217,"o":"m -85 1114 l 215 1114 l 215 -181 l -85 -181 l -85 -74 l 56 -74 l 56 1007 l -85 1007 l -85 1114 z "},"^":{"ha":660,"x_min":21,"x_max":639,"o":"m 415 954 l 639 401 l 467 401 l 331 740 l 193 401 l 21 401 l 243 954 l 415 954 z "},"_":{"ha":939,"x_min":56,"x_max":883,"o":"m 883 -193 l 56 -193 l 56 -33 l 883 -33 l 883 -193 z "},"a":{"ha":1089,"x_min":-12,"x_max":1101,"o":"m 711 974 l 1101 0 l 742 0 l 714 82 l 704 114 l 385 114 l 347 0 l -12 0 l 376 974 l 711 974 m 468 367 l 621 367 l 544 600 l 468 367 z "},"b":{"ha":969,"x_min":54,"x_max":947,"o":"m 861 532 q 946 324 946 444 l 946 300 q 858 88 946 175 q 646 0 771 0 l 299 0 l 56 0 l 56 972 l 322 972 l 322 974 l 597 974 q 808 885 721 974 q 896 674 896 797 q 861 532 896 599 m 388 681 l 388 624 l 546 624 q 565 632 557 624 q 574 652 574 640 q 565 672 574 664 q 546 681 557 681 l 388 681 m 624 333 q 615 359 624 347 q 590 374 606 371 l 553 374 l 553 372 l 388 372 l 388 292 l 582 292 q 612 303 600 292 q 624 333 624 315 z "},"c":{"ha":1038,"x_min":18,"x_max":1022,"o":"m 672 376 l 1022 376 q 856 88 989 194 q 525 -19 722 -19 q 159 120 299 -19 q 19 486 19 260 q 159 852 19 713 q 525 992 299 992 q 856 885 722 992 q 1022 596 989 778 l 672 596 q 525 693 629 693 q 403 637 449 693 q 358 486 358 581 q 403 335 358 392 q 525 278 449 278 q 672 376 629 278 z "},"d":{"ha":988,"x_min":56,"x_max":968,"o":"m 828 843 q 968 486 968 711 q 828 129 968 261 q 461 0 690 0 l 56 0 l 56 972 l 461 972 q 828 843 690 972 m 585 343 q 607 369 585 343 q 629 486 629 394 q 585 629 629 578 q 461 681 540 681 l 388 681 l 388 292 l 461 292 q 585 343 540 292 z "},"e":{"ha":800,"x_min":56,"x_max":769,"o":"m 388 292 l 769 292 l 769 0 l 56 0 l 56 972 l 742 972 l 742 681 l 388 681 l 388 613 l 672 613 l 672 360 l 388 360 l 388 292 z "},"f":{"ha":701,"x_min":53,"x_max":689,"o":"m 53 19 l 53 953 l 688 953 l 688 700 l 346 700 l 346 593 l 618 593 l 618 379 l 346 379 l 346 19 l 53 19 z "},"g":{"ha":1069,"x_min":19,"x_max":1032,"o":"m 478 572 l 1032 572 l 1032 0 l 779 0 l 779 69 q 669 -1 731 18 q 525 -19 607 -19 q 159 120 299 -19 q 19 486 19 260 q 159 852 19 713 q 525 992 299 992 q 838 899 708 992 q 1011 646 967 806 l 640 646 q 525 693 596 693 q 403 637 449 693 q 358 486 358 581 q 403 335 358 392 q 525 278 449 278 q 633 319 590 278 l 478 319 l 478 572 z "},"h":{"ha":1031,"x_min":56,"x_max":975,"o":"m 643 613 l 643 972 l 975 972 l 975 0 l 643 0 l 643 360 l 388 360 l 388 0 l 56 0 l 56 972 l 388 972 l 388 613 l 643 613 z "},"i":{"ha":443,"x_min":56,"x_max":388,"o":"m 388 0 l 56 0 l 56 972 l 388 972 l 388 0 z "},"j":{"ha":721,"x_min":-6,"x_max":675,"o":"m 342 972 l 674 972 l 674 315 q 574 83 674 175 q 297 -14 469 -14 q 6 72 115 -14 l -6 81 l 92 363 l 113 350 q 203 298 175 311 q 264 285 231 285 q 288 288 278 285 q 312 303 297 292 q 334 349 326 315 q 342 435 342 383 l 342 972 z "},"k":{"ha":1035,"x_min":56,"x_max":1043,"o":"m 679 606 l 1042 0 l 669 0 l 451 364 l 388 296 l 388 0 l 56 0 l 56 972 l 388 972 l 388 722 l 622 972 l 1024 972 l 679 606 z "},"l":{"ha":747,"x_min":56,"x_max":743,"o":"m 388 292 l 742 292 l 742 0 l 56 0 l 56 972 l 388 972 l 388 292 z "},"m":{"ha":1268,"x_min":54,"x_max":1213,"o":"m 881 972 l 1213 972 l 1213 0 l 881 0 l 881 429 l 760 168 l 682 0 l 586 0 l 508 168 l 388 428 l 388 0 l 56 0 l 56 972 l 388 972 l 388 971 l 633 440 l 881 972 z "},"n":{"ha":1051,"x_min":56,"x_max":996,"o":"m 664 972 l 996 972 l 996 0 l 664 0 l 388 407 l 388 0 l 56 0 l 56 972 l 388 972 l 664 506 l 664 972 z "},"o":{"ha":1051,"x_min":19,"x_max":1032,"o":"m 159 852 q 229 922 159 852 q 526 992 299 992 q 892 852 753 992 q 1032 486 1032 713 q 892 120 1032 260 q 526 -19 753 -19 q 159 120 299 -19 q 19 486 19 260 q 159 852 19 713 m 647 335 q 670 363 647 335 q 693 486 693 392 q 647 637 693 581 q 525 693 601 693 q 403 637 449 693 q 358 486 358 581 q 403 335 358 392 q 525 278 449 278 q 647 335 601 278 z "},"p":{"ha":929,"x_min":56,"x_max":921,"o":"m 586 972 q 822 874 725 972 q 919 639 919 776 q 828 410 919 506 q 606 306 738 314 l 388 306 l 388 0 l 56 0 l 56 972 l 385 972 l 543 972 l 586 972 m 556 599 q 585 610 574 599 q 597 640 597 622 q 585 669 597 657 q 556 681 574 681 l 388 681 l 388 599 l 556 599 z "},"q":{"ha":1058,"x_min":19,"x_max":1032,"o":"m 1032 486 q 917 147 1032 282 l 1011 39 l 786 -157 l 656 -7 q 525 -19 593 -19 q 159 120 299 -19 q 19 486 19 260 q 159 852 19 713 q 526 992 299 992 q 892 852 753 992 q 1032 486 1032 713 m 403 637 q 381 609 403 637 q 358 486 358 581 q 403 335 358 392 q 525 278 449 278 q 647 335 601 278 q 693 486 693 392 q 647 637 693 581 q 525 693 601 693 q 403 637 449 693 z "},"r":{"ha":993,"x_min":56,"x_max":993,"o":"m 993 0 l 629 0 l 436 306 l 388 306 l 388 0 l 56 0 l 56 972 l 385 972 l 543 972 l 586 972 q 822 874 725 972 q 919 639 919 776 q 876 473 919 549 q 757 353 832 397 l 993 0 m 388 681 l 388 599 l 556 599 q 585 610 574 599 q 597 639 597 622 q 585 668 597 656 q 556 681 574 681 l 388 681 z "},"s":{"ha":899,"x_min":56,"x_max":843,"o":"m 432 711 q 463 675 432 696 q 538 633 493 654 q 635 576 582 611 q 733 502 688 542 q 808 399 778 463 q 838 264 838 336 q 819 162 838 210 q 764 72 801 114 q 659 5 726 29 q 501 -19 592 -19 q 74 64 278 -19 l 56 71 l 160 342 l 179 333 q 478 224 411 228 q 518 246 518 221 q 488 287 518 264 q 412 332 457 310 q 314 389 367 354 q 216 464 261 424 q 141 566 171 504 q 111 700 111 628 q 163 860 111 789 q 292 967 214 931 q 457 1003 371 1003 q 513 1001 485 1003 q 563 996 542 999 q 612 985 583 993 q 655 974 640 978 q 700 958 669 969 q 740 943 731 947 q 784 925 750 939 q 825 908 818 911 l 843 901 l 733 610 l 715 618 q 651 650 694 628 q 574 688 607 672 q 506 717 542 703 q 451 730 471 731 q 432 711 432 729 z "},"t":{"ha":844,"x_min":3,"x_max":842,"o":"m 3 681 l 3 972 l 842 972 l 842 681 l 588 681 l 588 0 l 257 0 l 257 681 l 3 681 z "},"u":{"ha":967,"x_min":40,"x_max":926,"o":"m 594 389 l 594 972 l 925 972 l 925 422 q 796 110 925 239 q 483 -19 667 -19 q 170 110 300 -19 q 40 422 40 239 l 40 972 l 372 972 l 372 389 q 405 310 372 343 q 483 278 438 278 q 562 310 529 278 q 594 389 594 343 z "},"v":{"ha":1046,"x_min":-12,"x_max":1058,"o":"m 522 438 l 699 972 l 1058 972 l 669 0 l 376 0 l 372 13 l -12 972 l 347 972 l 522 438 z "},"w":{"ha":1451,"x_min":-11,"x_max":1461,"o":"m 961 518 l 1103 972 l 1461 972 l 1128 0 l 832 0 l 725 461 l 618 0 l 324 0 l -10 972 l 349 972 l 490 518 l 615 972 l 842 972 l 961 518 z "},"x":{"ha":986,"x_min":-4,"x_max":990,"o":"m 619 972 l 989 972 l 678 486 l 989 0 l 619 0 l 493 199 l 365 0 l -4 0 l 308 486 l -4 972 l 365 972 l 493 774 l 619 972 z "},"y":{"ha":1046,"x_min":-19,"x_max":1065,"o":"m 522 731 l 675 972 l 1065 972 l 689 392 l 689 0 l 357 0 l 357 392 l -19 972 l 371 972 l 522 731 z "},"z":{"ha":829,"x_min":36,"x_max":793,"o":"m 792 972 l 792 693 l 435 292 l 792 292 l 792 0 l 36 0 l 36 279 l 393 681 l 36 681 l 36 972 l 792 972 z "},"{":{"ha":489,"x_min":69,"x_max":572,"o":"m 400 760 q 264 482 400 560 q 400 189 400 399 q 441 -23 400 40 q 571 -86 482 -86 l 571 -181 q 328 -94 415 -181 q 240 161 240 -8 q 199 373 240 310 q 69 436 158 436 l 69 529 q 199 590 158 529 q 240 792 240 651 q 328 1033 240 953 q 571 1114 415 1114 l 571 1021 q 441 960 482 1021 q 400 760 400 899 z "},"|":{"ha":272,"x_min":56,"x_max":217,"o":"m 215 -181 l 56 -181 l 56 1114 l 215 1114 l 215 -181 z "},"}":{"ha":488,"x_min":-83,"x_max":419,"o":"m 247 792 q 288 590 247 651 q 418 529 329 529 l 418 436 q 288 373 329 436 q 247 161 247 310 q 160 -94 247 -8 q -83 -181 72 -181 l -83 -86 q 47 -23 6 -86 q 88 189 88 40 q 224 482 88 399 q 88 760 88 560 q 47 960 88 899 q -83 1021 6 1021 l -83 1114 q 160 1033 72 1114 q 247 792 247 953 z "},"~":{"ha":792,"x_min":33,"x_max":757,"o":"m 751 533 q 696 338 757 406 q 560 279 643 279 q 472 294 515 279 q 361 342 428 308 l 360 342 q 338 353 351 346 q 236 393 263 393 q 226 389 229 393 q 215 336 217 376 l 214 283 l 42 283 l 39 336 q 99 529 35 460 q 236 590 153 590 q 321 576 281 590 q 431 526 361 563 l 436 524 q 560 478 529 478 q 564 478 563 478 q 574 531 574 489 l 575 586 l 749 586 l 751 533 z "}," ":{"ha":525,"x_min":0,"x_max":0,"o":""},"¡":{"ha":293,"x_min":47,"x_max":246,"o":"m 219 605 q 205 591 219 605 q 147 578 192 578 q 74 605 101 578 q 47 676 47 632 q 74 748 47 721 q 147 775 101 775 q 219 748 192 775 q 246 676 246 721 q 219 605 246 632 m 76 518 l 215 518 l 240 -179 l 53 -179 l 76 518 z "},"¢":{"ha":768,"x_min":39,"x_max":731,"o":"m 644 328 l 731 83 q 504 1 632 8 l 504 -219 l 344 -219 l 344 10 q 117 119 194 32 q 39 350 39 206 q 117 586 39 497 q 344 697 196 675 l 344 922 l 504 922 l 504 699 q 703 635 590 690 l 618 390 q 468 443 535 443 q 339 353 339 443 q 378 285 339 310 q 479 260 417 260 q 551 276 514 260 q 644 328 588 293 z "},"£":{"ha":838,"x_min":69,"x_max":797,"o":"m 407 236 l 371 163 l 793 163 l 793 -15 l 200 -15 l 200 201 q 246 347 233 279 l 257 408 l 69 408 l 69 483 l 258 483 l 258 532 q 346 843 263 747 q 565 928 419 928 q 675 917 625 928 q 797 875 725 906 l 743 707 q 607 744 672 744 q 545 733 572 744 q 503 701 518 722 q 479 661 489 681 q 466 613 469 642 q 462 570 463 585 q 461 533 461 556 l 461 483 l 671 483 l 671 408 l 460 408 l 451 367 q 407 236 442 304 z "},"¥":{"ha":983,"x_min":69,"x_max":915,"o":"m 914 908 l 597 418 l 764 418 l 764 350 l 593 350 l 593 214 l 764 214 l 764 146 l 593 146 l 593 -11 l 392 -11 l 392 146 l 222 146 l 222 214 l 392 214 l 392 350 l 222 350 l 222 418 l 388 418 l 69 908 l 304 908 l 492 608 l 681 908 l 914 908 z "},"§":{"ha":667,"x_min":44,"x_max":622,"o":"m 622 418 q 564 271 622 335 q 590 172 590 225 q 496 -6 590 58 q 314 -56 421 -56 q 99 4 179 -56 l 65 28 l 135 193 l 188 156 q 313 117 243 117 q 332 118 322 117 q 357 123 342 119 q 383 136 372 126 q 393 161 393 146 q 389 179 393 172 q 360 201 385 186 q 285 233 335 217 q 214 260 243 247 q 151 293 185 272 q 95 337 117 314 q 59 394 74 360 q 44 469 44 428 q 110 615 44 551 q 86 704 88 657 l 86 706 q 171 869 86 808 q 357 925 246 925 q 544 879 463 925 l 583 857 l 521 689 l 467 722 q 353 751 418 751 q 304 742 325 751 q 283 717 283 733 q 306 688 283 701 q 394 654 329 675 q 547 578 497 621 q 622 418 622 515 m 426 379 q 432 404 432 390 q 361 464 432 440 l 361 465 q 333 475 351 468 q 243 511 271 497 q 232 482 232 497 q 322 419 232 453 q 426 379 394 394 z "},"©":{"ha":1239,"x_min":43,"x_max":1194,"o":"m 621 974 q 1036 817 878 974 q 1194 404 1194 660 q 1042 -10 1194 146 q 621 -165 890 -165 q 203 -8 364 -165 q 43 404 43 150 q 203 816 43 658 q 621 974 364 974 m 621 -51 q 936 73 818 -51 q 1054 405 1054 197 q 936 737 1054 613 q 621 861 818 861 q 303 736 422 861 q 183 404 183 611 q 303 73 183 197 q 621 -51 422 -51 m 622 526 q 550 493 576 526 q 524 404 524 460 q 550 315 524 349 q 622 282 576 282 q 708 340 682 282 l 913 340 q 816 170 894 233 q 622 107 738 107 q 407 189 489 107 q 325 404 325 271 q 407 619 325 538 q 622 701 489 701 q 816 639 738 701 q 913 469 894 576 l 708 469 q 622 526 682 526 z "},"ª":{"ha":446,"x_min":40,"x_max":404,"o":"m 396 479 q 403 375 396 424 l 324 375 l 315 431 l 313 431 q 178 368 263 368 q 77 404 114 368 q 40 494 40 440 q 111 609 40 568 q 308 647 182 650 l 308 661 q 305 683 308 671 q 292 709 301 694 q 260 733 282 724 q 210 743 239 743 q 94 707 142 743 l 74 765 q 226 808 135 808 q 396 622 396 808 l 396 479 m 310 517 l 310 590 q 128 500 128 593 q 151 450 128 468 q 206 432 174 432 q 296 481 264 432 q 310 517 310 503 z "},"«":{"ha":647,"x_min":31,"x_max":618,"o":"m 618 632 l 417 357 l 618 81 l 447 81 l 250 357 l 447 632 l 618 632 m 399 632 l 199 357 l 399 81 l 229 81 l 31 357 l 229 632 l 399 632 z "},"­":{"ha":0,"x_min":0,"x_max":0,"o":""},"®":{"ha":851,"x_min":43,"x_max":808,"o":"m 583 676 q 524 575 583 604 l 606 444 l 489 444 l 415 560 l 394 560 l 394 444 l 285 444 l 285 792 l 450 792 q 547 761 511 792 q 583 676 583 731 m 446 653 q 472 676 472 653 q 446 697 472 697 l 394 697 l 394 653 l 446 653 m 428 985 q 703 880 599 985 q 807 604 807 775 q 707 331 807 433 q 428 228 607 228 q 149 332 256 228 q 43 604 43 436 q 149 879 43 774 q 428 985 256 985 m 428 303 q 636 385 558 303 q 714 604 714 468 q 636 826 714 743 q 428 908 558 908 q 216 826 296 908 q 136 604 136 743 q 216 385 136 468 q 428 303 296 303 z "},"°":{"ha":432,"x_min":38,"x_max":393,"o":"m 217 933 q 344 883 296 933 q 393 761 393 832 q 340 632 393 682 q 214 582 286 582 q 88 632 138 582 q 39 754 39 682 q 90 882 38 831 q 217 933 142 933 m 215 644 q 290 677 260 644 q 321 760 321 710 q 294 837 321 803 q 215 871 267 871 q 139 836 167 871 q 111 754 111 801 q 141 676 111 708 q 215 644 171 644 z "},"²":{"ha":425,"x_min":26,"x_max":388,"o":"m 158 685 l 386 685 l 386 611 l 26 611 l 26 661 l 111 738 q 240 872 201 821 q 279 969 279 922 q 253 1036 279 1010 q 178 1063 226 1063 q 65 1021 121 1063 l 38 1082 q 200 1138 106 1138 q 333 1092 288 1138 q 378 988 378 1047 q 334 861 378 918 q 200 725 290 804 l 158 688 l 158 685 z "},"³":{"ha":435,"x_min":32,"x_max":396,"o":"m 271 889 q 360 847 326 882 q 394 761 394 811 q 338 650 394 696 q 185 604 282 604 q 32 640 85 604 l 56 707 q 181 672 111 672 q 267 700 236 672 q 296 763 297 728 q 255 833 296 810 q 154 857 214 857 l 118 857 l 118 918 l 156 918 q 238 939 200 918 q 278 1001 276 960 q 256 1049 278 1029 q 193 1069 235 1069 q 81 1033 132 1069 l 57 1096 q 211 1138 122 1138 q 333 1101 292 1138 q 374 1011 374 1065 q 347 940 374 972 q 271 892 319 908 l 271 889 z "},"·":{"ha":229,"x_min":33,"x_max":194,"o":"m 58 431 q 69 443 58 431 q 115 456 81 456 q 172 432 150 456 q 193 371 193 408 q 171 311 193 335 q 114 288 149 288 q 56 311 79 288 q 35 371 33 335 q 58 431 35 407 z "},"¹":{"ha":179,"x_min":-71,"x_max":136,"o":"m 54 1132 l 136 1132 l 136 611 l 43 611 l 43 1049 l 40 1049 l -56 1003 l -71 1072 l 54 1132 z "},"º":{"ha":507,"x_min":40,"x_max":467,"o":"m 256 808 q 408 747 351 808 q 465 592 465 686 q 401 426 465 483 q 253 368 338 368 q 101 428 161 368 q 40 585 40 488 q 103 747 40 685 q 256 808 165 808 m 254 435 q 342 477 307 435 q 376 589 376 519 q 344 694 376 647 q 253 742 313 742 q 161 695 193 742 q 129 588 129 649 q 166 478 129 522 q 254 435 203 435 z "},"»":{"ha":647,"x_min":28,"x_max":617,"o":"m 415 632 l 615 357 l 415 81 l 247 81 l 446 357 l 246 632 l 415 632 m 199 632 l 397 357 l 199 81 l 29 81 l 229 357 l 28 632 l 199 632 z "},"¿":{"ha":533,"x_min":32,"x_max":533,"o":"m 463 106 l 532 -100 q 418 -163 474 -143 q 296 -183 363 -183 q 101 -106 168 -183 q 33 83 33 -28 q 49 197 33 149 q 90 270 65 244 q 142 316 114 296 q 195 349 171 336 q 235 380 219 361 q 251 424 251 399 l 403 424 q 387 332 403 372 q 347 266 371 292 q 301 217 324 240 q 261 166 278 194 q 244 104 244 138 q 313 38 244 38 q 360 47 333 38 q 403 67 386 57 q 463 106 419 78 m 419 615 q 404 601 419 615 q 340 588 389 588 q 260 615 290 588 q 231 689 231 643 q 260 763 231 735 q 340 790 290 790 q 419 763 389 790 q 449 689 449 735 q 419 615 449 643 z "},"À":{"ha":1092,"x_min":-11,"x_max":1103,"o":"m 622 1049 l 444 1049 l 203 1311 l 415 1458 l 622 1049 m 713 972 l 1103 0 l 743 0 l 715 82 l 706 114 l 386 114 l 349 0 l -11 0 l 378 972 l 713 972 m 469 365 l 622 365 l 546 600 l 469 365 z "},"Á":{"ha":1092,"x_min":-11,"x_max":1103,"o":"m 889 1311 l 646 1049 l 469 1049 l 676 1458 l 889 1311 m 713 972 l 1103 0 l 743 0 l 717 82 l 706 114 l 386 114 l 349 0 l -11 0 l 378 972 l 713 972 m 469 365 l 622 365 l 546 600 l 469 365 z "},"Â":{"ha":1092,"x_min":-11,"x_max":1103,"o":"m 546 1158 l 471 1049 l 189 1049 l 461 1344 l 631 1344 l 903 1049 l 621 1049 l 546 1158 m 378 972 l 713 972 l 1103 0 l 743 0 l 717 82 l 706 114 l 386 114 l 349 0 l -11 0 l 378 972 m 469 365 l 622 365 l 546 600 l 469 365 z "},"Ã":{"ha":1092,"x_min":-11,"x_max":1103,"o":"m 265 1067 l 263 1108 q 310 1263 260 1207 q 419 1310 353 1310 q 486 1299 454 1310 q 574 1260 518 1288 l 578 1257 q 676 1221 651 1221 q 679 1221 678 1221 q 688 1264 686 1231 l 688 1307 l 826 1307 l 828 1265 q 783 1110 832 1164 q 675 1064 742 1064 q 518 1113 618 1064 l 517 1113 q 500 1122 513 1115 q 419 1154 440 1154 q 411 1151 414 1154 q 403 1110 404 1140 l 401 1067 l 265 1067 m 713 972 l 1103 0 l 743 0 l 717 82 l 706 114 l 386 114 l 349 0 l -11 0 l 378 972 l 713 972 m 469 365 l 622 365 l 546 600 l 469 365 z "},"Ä":{"ha":1092,"x_min":-11,"x_max":1103,"o":"m 807 1103 q 788 1083 807 1103 q 713 1064 768 1064 q 618 1103 657 1064 q 579 1197 579 1142 q 618 1291 579 1251 q 713 1331 657 1331 q 807 1291 768 1331 q 846 1197 846 1251 q 807 1103 846 1142 m 476 1100 q 457 1082 476 1100 q 379 1064 439 1064 q 283 1100 319 1064 q 246 1197 246 1136 q 283 1294 246 1257 q 379 1331 319 1331 q 476 1294 439 1331 q 513 1197 513 1257 q 476 1100 513 1136 m 378 972 l 713 972 l 1103 0 l 743 0 l 717 82 l 706 114 l 386 114 l 349 0 l -11 0 l 378 972 m 469 365 l 622 365 l 546 600 l 469 365 z "},"Å":{"ha":1092,"x_min":-11,"x_max":1103,"o":"m 625 972 l 713 972 l 1103 0 l 743 0 l 715 82 l 706 114 l 386 114 l 349 0 l -11 0 l 378 972 l 467 972 q 389 1041 418 996 q 360 1142 360 1086 q 414 1273 360 1218 q 545 1328 468 1328 q 677 1273 622 1328 q 732 1142 732 1218 q 703 1041 732 1086 q 625 972 674 996 m 599 1194 q 588 1206 599 1194 q 545 1217 576 1217 q 492 1194 514 1217 q 471 1141 471 1172 q 492 1088 471 1110 q 545 1067 514 1067 q 599 1088 576 1067 q 621 1141 621 1110 q 599 1194 621 1172 m 469 365 l 622 365 l 546 600 l 469 365 z "},"Æ":{"ha":1289,"x_min":-11,"x_max":1258,"o":"m 876 292 l 1257 292 l 1257 0 l 544 0 l 544 114 l 386 114 l 349 0 l -11 0 l 378 972 l 564 972 l 1231 972 l 1231 681 l 876 681 l 876 611 l 1161 611 l 1161 360 l 876 360 l 876 292 m 544 365 l 544 594 l 469 365 l 544 365 z "},"Ç":{"ha":1038,"x_min":18,"x_max":1022,"o":"m 525 278 q 672 376 629 278 l 1022 376 q 874 103 992 208 q 582 -18 757 -3 l 563 -47 q 622 -158 622 -93 q 563 -268 622 -222 q 421 -314 504 -314 q 342 -303 397 -314 q 267 -282 288 -292 l 328 -185 q 374 -197 335 -187 q 421 -206 413 -206 q 463 -192 446 -206 q 481 -158 481 -178 q 451 -118 481 -132 l 379 -92 l 428 -12 q 131 151 242 17 q 19 486 19 285 q 159 852 19 713 q 525 992 299 992 q 856 885 722 992 q 1022 596 989 778 l 672 596 q 525 693 629 693 q 403 637 449 693 q 358 486 358 581 q 403 335 358 392 q 525 278 449 278 z "},"È":{"ha":800,"x_min":56,"x_max":769,"o":"m 533 1049 l 356 1049 l 114 1311 l 326 1458 l 533 1049 m 388 292 l 769 292 l 769 0 l 56 0 l 56 972 l 742 972 l 742 681 l 388 681 l 388 611 l 672 611 l 672 360 l 388 360 l 388 292 z "},"É":{"ha":800,"x_min":56,"x_max":769,"o":"m 742 1311 l 499 1049 l 321 1049 l 529 1458 l 742 1311 m 388 292 l 769 292 l 769 0 l 56 0 l 56 972 l 742 972 l 742 681 l 388 681 l 388 611 l 672 611 l 672 360 l 388 360 l 388 292 z "},"Ê":{"ha":800,"x_min":56,"x_max":769,"o":"m 413 1158 l 338 1049 l 56 1049 l 328 1344 l 496 1344 l 769 1049 l 488 1049 l 413 1158 m 388 292 l 769 292 l 769 0 l 56 0 l 56 972 l 742 972 l 742 681 l 388 681 l 388 611 l 672 611 l 672 360 l 388 360 l 388 292 z "},"Ë":{"ha":800,"x_min":56,"x_max":769,"o":"m 674 1103 q 654 1083 674 1103 q 579 1064 635 1064 q 485 1103 524 1064 q 446 1197 446 1142 q 485 1291 446 1251 q 579 1331 524 1331 q 674 1291 635 1331 q 713 1197 713 1251 q 674 1103 713 1142 m 342 1100 q 324 1082 342 1100 q 245 1064 306 1064 q 149 1100 185 1064 q 113 1197 113 1136 q 149 1294 113 1257 q 245 1331 185 1331 q 342 1294 306 1331 q 379 1197 379 1257 q 342 1100 379 1136 m 388 292 l 769 292 l 769 0 l 56 0 l 56 972 l 742 972 l 742 681 l 388 681 l 388 611 l 672 611 l 672 360 l 388 360 l 388 292 z "},"Ì":{"ha":443,"x_min":-86,"x_max":388,"o":"m 333 1049 l 157 1049 l -86 1311 l 126 1458 l 333 1049 m 386 0 l 56 0 l 56 972 l 386 972 l 386 0 z "},"Í":{"ha":443,"x_min":56,"x_max":561,"o":"m 561 1311 l 318 1049 l 140 1049 l 349 1458 l 561 1311 m 388 0 l 56 0 l 56 972 l 388 972 l 388 0 z "},"Î":{"ha":444,"x_min":-136,"x_max":579,"o":"m 222 1158 l 147 1049 l -135 1049 l 138 1344 l 306 1344 l 578 1049 l 296 1049 l 222 1158 m 388 0 l 56 0 l 56 972 l 388 972 l 388 0 z "},"Ï":{"ha":443,"x_min":-79,"x_max":522,"o":"m 482 1103 q 463 1083 482 1103 q 388 1064 443 1064 q 293 1103 332 1064 q 254 1197 254 1142 q 293 1291 254 1251 q 388 1331 332 1331 q 482 1291 443 1331 q 521 1197 521 1251 q 482 1103 521 1142 m 151 1294 q 169 1275 151 1294 q 188 1197 188 1257 q 151 1100 188 1136 q 54 1064 114 1064 q -42 1100 -6 1064 q -79 1197 -79 1136 q -42 1294 -79 1257 q 54 1331 -6 1331 q 151 1294 114 1331 m 388 0 l 56 0 l 56 972 l 388 972 l 388 0 z "},"Ñ":{"ha":1051,"x_min":54,"x_max":996,"o":"m 244 1067 l 243 1108 q 289 1263 239 1207 q 400 1310 333 1310 q 465 1299 433 1310 q 553 1260 497 1288 l 558 1257 q 656 1221 631 1221 q 660 1221 658 1221 q 667 1264 667 1231 l 668 1307 l 806 1307 l 808 1265 q 764 1110 813 1164 q 656 1064 722 1064 q 497 1113 597 1064 q 481 1122 490 1117 q 400 1154 419 1154 q 392 1151 393 1154 q 383 1110 383 1140 l 382 1067 l 244 1067 m 664 972 l 996 972 l 996 0 l 664 0 l 388 407 l 388 0 l 56 0 l 56 972 l 388 972 l 664 506 l 664 972 z "},"Ò":{"ha":1051,"x_min":19,"x_max":1032,"o":"m 554 1049 l 376 1049 l 135 1311 l 347 1458 l 554 1049 m 159 852 q 229 922 159 852 q 526 992 299 992 q 892 852 753 992 q 1032 485 1032 713 q 892 119 1032 258 q 526 -19 753 -19 q 159 119 299 -19 q 19 485 19 258 q 159 852 19 713 m 403 335 q 426 306 403 335 q 525 278 449 278 q 647 335 601 278 q 693 486 693 392 q 647 637 693 581 q 525 693 601 693 q 403 637 449 693 q 358 486 358 581 q 403 335 358 392 z "},"Ó":{"ha":1051,"x_min":19,"x_max":1032,"o":"m 828 1311 l 586 1049 l 408 1049 l 617 1458 l 828 1311 m 159 852 q 229 922 159 852 q 526 992 299 992 q 892 852 753 992 q 1032 485 1032 713 q 892 119 1032 258 q 526 -19 753 -19 q 159 119 299 -19 q 19 485 19 258 q 159 852 19 713 m 403 335 q 426 306 403 335 q 525 278 449 278 q 647 335 601 278 q 693 486 693 392 q 647 637 693 581 q 525 693 601 693 q 403 637 449 693 q 358 486 358 581 q 403 335 358 392 z "},"Ô":{"ha":1051,"x_min":19,"x_max":1032,"o":"m 544 1158 l 469 1049 l 188 1049 l 460 1344 l 628 1344 l 900 1049 l 618 1049 l 544 1158 m 159 852 q 229 922 159 852 q 526 992 299 992 q 892 852 753 992 q 1032 485 1032 713 q 892 119 1032 258 q 526 -19 753 -19 q 159 119 299 -19 q 19 485 19 258 q 159 852 19 713 m 403 335 q 426 306 403 335 q 525 278 449 278 q 647 335 601 278 q 693 486 693 392 q 647 637 693 581 q 525 693 601 693 q 403 637 449 693 q 358 486 358 581 q 403 335 358 392 z "},"Õ":{"ha":1051,"x_min":19,"x_max":1032,"o":"m 244 1067 l 243 1108 q 290 1263 239 1207 q 400 1310 333 1310 q 466 1299 435 1310 q 554 1260 497 1288 l 558 1257 q 657 1221 631 1221 q 660 1221 658 1221 q 667 1264 667 1231 l 668 1307 l 806 1307 l 808 1265 q 764 1110 813 1164 q 656 1064 722 1064 q 497 1113 597 1064 q 481 1122 490 1117 q 400 1154 419 1154 q 392 1151 393 1154 q 383 1110 383 1140 l 382 1067 l 244 1067 m 159 852 q 229 922 159 852 q 526 992 299 992 q 892 852 753 992 q 1032 485 1032 713 q 892 119 1032 258 q 526 -19 753 -19 q 159 119 299 -19 q 19 485 19 258 q 159 852 19 713 m 403 335 q 426 306 403 335 q 525 278 449 278 q 647 335 601 278 q 693 486 693 392 q 647 637 693 581 q 525 693 601 693 q 403 637 449 693 q 358 486 358 581 q 403 335 358 392 z "},"Ö":{"ha":1051,"x_min":19,"x_max":1032,"o":"m 786 1103 q 767 1083 786 1103 q 692 1064 747 1064 q 598 1103 638 1064 q 558 1197 558 1142 q 598 1291 558 1251 q 692 1331 638 1331 q 786 1291 747 1331 q 825 1197 825 1251 q 786 1103 825 1142 m 456 1100 q 438 1082 456 1100 q 359 1064 419 1064 q 262 1100 299 1064 q 225 1197 225 1136 q 262 1294 225 1257 q 359 1331 299 1331 q 456 1294 419 1331 q 492 1197 492 1257 q 456 1100 492 1136 m 159 852 q 229 922 159 852 q 526 992 299 992 q 892 852 753 992 q 1032 485 1032 713 q 892 119 1032 258 q 526 -19 753 -19 q 159 119 299 -19 q 19 485 19 258 q 159 852 19 713 m 403 335 q 426 306 403 335 q 525 278 449 278 q 647 335 601 278 q 693 486 693 392 q 647 637 693 581 q 525 693 601 693 q 403 637 449 693 q 358 486 358 581 q 403 335 358 392 z "},"×":{"ha":608,"x_min":38,"x_max":571,"o":"m 571 632 l 404 465 l 571 299 l 471 199 l 304 365 l 138 199 l 38 299 l 204 465 l 38 632 l 138 732 l 304 565 l 471 732 l 571 632 z "},"Ø":{"ha":1051,"x_min":19,"x_max":1032,"o":"m 829 906 q 978 731 925 839 q 1032 486 1032 622 q 892 119 1032 258 q 525 -19 753 -19 q 365 1 440 -19 l 318 -92 l 142 -92 l 222 67 q 72 241 125 133 q 19 486 19 349 q 159 852 19 713 q 525 992 299 992 q 686 971 611 992 l 733 1063 l 910 1063 l 829 906 m 358 486 q 379 374 358 422 l 543 693 q 525 693 535 693 q 403 637 449 693 q 358 486 358 581 m 525 278 q 647 335 601 278 q 693 486 693 392 q 671 599 693 550 l 507 279 q 525 278 517 278 z "},"Ù":{"ha":967,"x_min":40,"x_max":926,"o":"m 585 1049 l 408 1049 l 165 1311 l 378 1458 l 585 1049 m 594 972 l 925 972 l 925 422 q 796 110 925 239 q 483 -19 667 -19 q 170 110 300 -19 q 40 422 40 239 l 40 972 l 372 972 l 372 389 q 405 310 372 343 q 483 278 438 278 q 562 310 529 278 q 594 389 594 343 l 594 972 z "},"Ú":{"ha":967,"x_min":40,"x_max":926,"o":"m 810 1311 l 567 1049 l 390 1049 l 597 1458 l 810 1311 m 594 972 l 926 972 l 926 422 q 797 110 926 239 q 483 -19 667 -19 q 170 110 300 -19 q 40 422 40 239 l 40 972 l 372 972 l 372 389 q 405 310 372 343 q 483 278 438 278 q 562 310 529 278 q 594 389 594 343 l 594 972 z "},"Û":{"ha":967,"x_min":40,"x_max":926,"o":"m 483 1158 l 408 1049 l 126 1049 l 399 1344 l 567 1344 l 839 1049 l 558 1049 l 483 1158 m 594 972 l 925 972 l 925 422 q 796 110 925 239 q 483 -19 667 -19 q 170 110 300 -19 q 40 422 40 239 l 40 972 l 372 972 l 372 389 q 405 310 372 343 q 483 278 438 278 q 562 310 529 278 q 594 389 594 343 l 594 972 z "},"Ü":{"ha":967,"x_min":40,"x_max":926,"o":"m 744 1103 q 725 1083 744 1103 q 650 1064 706 1064 q 556 1103 594 1064 q 517 1197 517 1142 q 556 1291 517 1251 q 650 1331 594 1331 q 744 1291 706 1331 q 783 1197 783 1251 q 744 1103 783 1142 m 413 1100 q 395 1082 413 1100 q 316 1064 376 1064 q 219 1100 256 1064 q 183 1197 183 1136 q 219 1294 183 1257 q 316 1331 256 1331 q 413 1294 376 1331 q 450 1197 450 1257 q 413 1100 450 1136 m 594 389 l 594 972 l 926 972 l 926 422 q 797 110 926 239 q 483 -19 667 -19 q 170 110 300 -19 q 40 422 40 239 l 40 972 l 372 972 l 372 389 q 405 310 372 343 q 483 278 438 278 q 562 310 529 278 q 594 389 594 343 z "},"Ý":{"ha":1046,"x_min":-19,"x_max":1065,"o":"m 829 1311 l 586 1049 l 410 1049 l 617 1458 l 829 1311 m 675 972 l 1065 972 l 689 392 l 689 0 l 357 0 l 357 392 l -19 972 l 371 972 l 522 731 l 675 972 z "},"ß":{"ha":783,"x_min":28,"x_max":769,"o":"m 722 368 q 758 302 747 336 q 769 226 769 268 q 735 100 769 154 q 639 19 700 46 q 510 -6 579 -6 q 439 -1 482 -6 q 350 15 396 4 l 343 17 l 342 24 q 331 165 339 71 l 329 179 l 343 175 q 464 150 417 150 q 513 161 489 150 q 551 194 536 172 q 567 249 567 215 q 563 281 567 265 q 550 310 558 296 q 528 340 542 325 q 503 367 514 356 q 454 406 490 376 l 424 431 q 406 447 417 435 q 386 474 394 458 q 375 507 378 489 q 372 542 372 525 q 376 582 372 563 q 391 617 382 603 q 413 640 400 631 q 449 656 425 649 q 476 667 468 663 q 488 678 482 671 q 496 697 493 685 q 499 726 499 710 q 487 772 499 756 q 456 797 475 789 q 406 806 433 806 q 354 799 378 806 q 326 786 339 794 q 303 764 314 776 q 286 735 292 750 q 275 675 278 713 q 261 461 268 603 l 249 231 q 242 19 243 110 l 242 10 l 232 10 q 136 11 179 11 q 40 10 99 11 l 29 10 l 42 140 l 63 506 q 74 704 69 674 q 94 794 79 760 q 129 850 107 826 q 198 901 157 878 q 285 935 239 925 q 411 947 342 947 q 521 938 468 947 q 611 900 574 926 q 665 835 650 872 q 681 753 681 799 q 676 699 681 722 q 667 665 672 676 q 649 640 661 653 q 623 619 638 629 q 582 594 608 610 q 547 574 556 581 q 536 563 539 568 q 532 547 532 556 q 546 513 532 528 q 594 475 560 497 q 664 425 632 451 q 722 368 697 399 z "},"à":{"ha":1092,"x_min":-11,"x_max":1103,"o":"m 622 1049 l 444 1049 l 203 1311 l 415 1458 l 622 1049 m 713 972 l 1103 0 l 743 0 l 715 82 l 706 114 l 386 114 l 349 0 l -11 0 l 378 972 l 713 972 m 469 365 l 622 365 l 546 600 l 469 365 z "},"á":{"ha":1092,"x_min":-11,"x_max":1103,"o":"m 889 1311 l 646 1049 l 469 1049 l 676 1458 l 889 1311 m 713 972 l 1103 0 l 743 0 l 717 82 l 706 114 l 386 114 l 349 0 l -11 0 l 378 972 l 713 972 m 469 365 l 622 365 l 546 600 l 469 365 z "},"â":{"ha":1092,"x_min":-11,"x_max":1103,"o":"m 546 1158 l 471 1049 l 189 1049 l 461 1344 l 631 1344 l 903 1049 l 621 1049 l 546 1158 m 378 972 l 713 972 l 1103 0 l 743 0 l 717 82 l 706 114 l 386 114 l 349 0 l -11 0 l 378 972 m 469 365 l 622 365 l 546 600 l 469 365 z "},"ã":{"ha":1092,"x_min":-11,"x_max":1103,"o":"m 265 1067 l 263 1108 q 310 1263 260 1207 q 419 1310 353 1310 q 486 1299 454 1310 q 574 1260 518 1288 l 578 1257 q 676 1221 651 1221 q 679 1221 678 1221 q 688 1264 686 1231 l 688 1307 l 826 1307 l 828 1265 q 783 1110 832 1164 q 675 1064 742 1064 q 518 1113 618 1064 l 517 1113 q 500 1122 513 1115 q 419 1154 440 1154 q 411 1151 414 1154 q 403 1110 404 1140 l 401 1067 l 265 1067 m 713 972 l 1103 0 l 743 0 l 717 82 l 706 114 l 386 114 l 349 0 l -11 0 l 378 972 l 713 972 m 469 365 l 622 365 l 546 600 l 469 365 z "},"ä":{"ha":1092,"x_min":-11,"x_max":1103,"o":"m 807 1103 q 788 1083 807 1103 q 713 1064 768 1064 q 618 1103 657 1064 q 579 1197 579 1142 q 618 1291 579 1251 q 713 1331 657 1331 q 807 1291 768 1331 q 846 1197 846 1251 q 807 1103 846 1142 m 476 1100 q 457 1082 476 1100 q 379 1064 439 1064 q 283 1100 319 1064 q 246 1197 246 1136 q 283 1294 246 1257 q 379 1331 319 1331 q 476 1294 439 1331 q 513 1197 513 1257 q 476 1100 513 1136 m 378 972 l 713 972 l 1103 0 l 743 0 l 717 82 l 706 114 l 386 114 l 349 0 l -11 0 l 378 972 m 469 365 l 622 365 l 546 600 l 469 365 z "},"å":{"ha":1092,"x_min":-11,"x_max":1103,"o":"m 625 972 l 713 972 l 1103 0 l 743 0 l 715 82 l 706 114 l 386 114 l 349 0 l -11 0 l 378 972 l 467 972 q 389 1041 418 996 q 360 1142 360 1086 q 414 1273 360 1218 q 545 1328 468 1328 q 677 1273 622 1328 q 732 1142 732 1218 q 703 1041 732 1086 q 625 972 674 996 m 599 1194 q 588 1206 599 1194 q 545 1217 576 1217 q 492 1194 514 1217 q 471 1141 471 1172 q 492 1088 471 1110 q 545 1067 514 1067 q 599 1088 576 1067 q 621 1141 621 1110 q 599 1194 621 1172 m 469 365 l 622 365 l 546 600 l 469 365 z "},"æ":{"ha":1289,"x_min":-11,"x_max":1258,"o":"m 876 292 l 1257 292 l 1257 0 l 544 0 l 544 114 l 386 114 l 349 0 l -11 0 l 378 972 l 564 972 l 1231 972 l 1231 681 l 876 681 l 876 611 l 1161 611 l 1161 360 l 876 360 l 876 292 m 544 365 l 544 594 l 469 365 l 544 365 z "},"ç":{"ha":1038,"x_min":18,"x_max":1022,"o":"m 525 278 q 672 376 629 278 l 1022 376 q 874 103 992 208 q 582 -18 757 -3 l 563 -47 q 622 -158 622 -93 q 563 -268 622 -222 q 421 -314 504 -314 q 342 -303 397 -314 q 267 -282 288 -292 l 328 -185 q 374 -197 335 -187 q 421 -206 413 -206 q 463 -192 446 -206 q 481 -158 481 -178 q 451 -118 481 -132 l 379 -92 l 428 -12 q 131 151 242 17 q 19 486 19 285 q 159 852 19 713 q 525 992 299 992 q 856 885 722 992 q 1022 596 989 778 l 672 596 q 525 693 629 693 q 403 637 449 693 q 358 486 358 581 q 403 335 358 392 q 525 278 449 278 z "},"è":{"ha":800,"x_min":56,"x_max":769,"o":"m 533 1049 l 356 1049 l 114 1311 l 326 1458 l 533 1049 m 388 292 l 769 292 l 769 0 l 56 0 l 56 972 l 742 972 l 742 681 l 388 681 l 388 611 l 672 611 l 672 360 l 388 360 l 388 292 z "},"é":{"ha":800,"x_min":56,"x_max":769,"o":"m 742 1311 l 499 1049 l 321 1049 l 529 1458 l 742 1311 m 388 292 l 769 292 l 769 0 l 56 0 l 56 972 l 742 972 l 742 681 l 388 681 l 388 611 l 672 611 l 672 360 l 388 360 l 388 292 z "},"ê":{"ha":800,"x_min":56,"x_max":769,"o":"m 413 1158 l 338 1049 l 56 1049 l 328 1344 l 496 1344 l 769 1049 l 488 1049 l 413 1158 m 388 292 l 769 292 l 769 0 l 56 0 l 56 972 l 742 972 l 742 681 l 388 681 l 388 611 l 672 611 l 672 360 l 388 360 l 388 292 z "},"ë":{"ha":800,"x_min":56,"x_max":769,"o":"m 674 1103 q 654 1083 674 1103 q 579 1064 635 1064 q 485 1103 524 1064 q 446 1197 446 1142 q 485 1291 446 1251 q 579 1331 524 1331 q 674 1291 635 1331 q 713 1197 713 1251 q 674 1103 713 1142 m 342 1100 q 324 1082 342 1100 q 245 1064 306 1064 q 149 1100 185 1064 q 113 1197 113 1136 q 149 1294 113 1257 q 245 1331 185 1331 q 342 1294 306 1331 q 379 1197 379 1257 q 342 1100 379 1136 m 388 292 l 769 292 l 769 0 l 56 0 l 56 972 l 742 972 l 742 681 l 388 681 l 388 611 l 672 611 l 672 360 l 388 360 l 388 292 z "},"ì":{"ha":443,"x_min":-86,"x_max":388,"o":"m 333 1049 l 157 1049 l -86 1311 l 126 1458 l 333 1049 m 386 0 l 56 0 l 56 972 l 386 972 l 386 0 z "},"í":{"ha":443,"x_min":56,"x_max":561,"o":"m 561 1311 l 318 1049 l 140 1049 l 349 1458 l 561 1311 m 388 0 l 56 0 l 56 972 l 388 972 l 388 0 z "},"î":{"ha":444,"x_min":-136,"x_max":579,"o":"m 222 1158 l 147 1049 l -135 1049 l 138 1344 l 306 1344 l 578 1049 l 296 1049 l 222 1158 m 388 0 l 56 0 l 56 972 l 388 972 l 388 0 z "},"ï":{"ha":443,"x_min":-79,"x_max":522,"o":"m 482 1103 q 463 1083 482 1103 q 388 1064 443 1064 q 293 1103 332 1064 q 254 1197 254 1142 q 293 1291 254 1251 q 388 1331 332 1331 q 482 1291 443 1331 q 521 1197 521 1251 q 482 1103 521 1142 m 151 1294 q 169 1275 151 1294 q 188 1197 188 1257 q 151 1100 188 1136 q 54 1064 114 1064 q -42 1100 -6 1064 q -79 1197 -79 1136 q -42 1294 -79 1257 q 54 1331 -6 1331 q 151 1294 114 1331 m 388 0 l 56 0 l 56 972 l 388 972 l 388 0 z "},"ñ":{"ha":1051,"x_min":54,"x_max":996,"o":"m 244 1067 l 243 1108 q 289 1263 239 1207 q 400 1310 333 1310 q 465 1299 433 1310 q 553 1260 497 1288 l 558 1257 q 656 1221 631 1221 q 660 1221 658 1221 q 667 1264 667 1231 l 668 1307 l 806 1307 l 808 1265 q 764 1110 813 1164 q 656 1064 722 1064 q 497 1113 597 1064 q 481 1122 490 1117 q 400 1154 419 1154 q 392 1151 393 1154 q 383 1110 383 1140 l 382 1067 l 244 1067 m 664 972 l 996 972 l 996 0 l 664 0 l 388 407 l 388 0 l 56 0 l 56 972 l 388 972 l 664 506 l 664 972 z "},"ò":{"ha":1051,"x_min":19,"x_max":1032,"o":"m 554 1049 l 376 1049 l 135 1311 l 347 1458 l 554 1049 m 159 852 q 229 922 159 852 q 526 992 299 992 q 892 852 753 992 q 1032 485 1032 713 q 892 119 1032 258 q 526 -19 753 -19 q 159 119 299 -19 q 19 485 19 258 q 159 852 19 713 m 403 335 q 426 306 403 335 q 525 278 449 278 q 647 335 601 278 q 693 486 693 392 q 647 637 693 581 q 525 693 601 693 q 403 637 449 693 q 358 486 358 581 q 403 335 358 392 z "},"ó":{"ha":1051,"x_min":19,"x_max":1032,"o":"m 828 1311 l 586 1049 l 408 1049 l 617 1458 l 828 1311 m 159 852 q 229 922 159 852 q 526 992 299 992 q 892 852 753 992 q 1032 485 1032 713 q 892 119 1032 258 q 526 -19 753 -19 q 159 119 299 -19 q 19 485 19 258 q 159 852 19 713 m 403 335 q 426 306 403 335 q 525 278 449 278 q 647 335 601 278 q 693 486 693 392 q 647 637 693 581 q 525 693 601 693 q 403 637 449 693 q 358 486 358 581 q 403 335 358 392 z "},"ô":{"ha":1051,"x_min":19,"x_max":1032,"o":"m 544 1158 l 469 1049 l 188 1049 l 460 1344 l 628 1344 l 900 1049 l 618 1049 l 544 1158 m 159 852 q 229 922 159 852 q 526 992 299 992 q 892 852 753 992 q 1032 485 1032 713 q 892 119 1032 258 q 526 -19 753 -19 q 159 119 299 -19 q 19 485 19 258 q 159 852 19 713 m 403 335 q 426 306 403 335 q 525 278 449 278 q 647 335 601 278 q 693 486 693 392 q 647 637 693 581 q 525 693 601 693 q 403 637 449 693 q 358 486 358 581 q 403 335 358 392 z "},"õ":{"ha":1051,"x_min":19,"x_max":1032,"o":"m 244 1067 l 243 1108 q 290 1263 239 1207 q 400 1310 333 1310 q 466 1299 435 1310 q 554 1260 497 1288 l 558 1257 q 657 1221 631 1221 q 660 1221 658 1221 q 667 1264 667 1231 l 668 1307 l 806 1307 l 808 1265 q 764 1110 813 1164 q 656 1064 722 1064 q 497 1113 597 1064 q 481 1122 490 1117 q 400 1154 419 1154 q 392 1151 393 1154 q 383 1110 383 1140 l 382 1067 l 244 1067 m 159 852 q 229 922 159 852 q 526 992 299 992 q 892 852 753 992 q 1032 485 1032 713 q 892 119 1032 258 q 526 -19 753 -19 q 159 119 299 -19 q 19 485 19 258 q 159 852 19 713 m 403 335 q 426 306 403 335 q 525 278 449 278 q 647 335 601 278 q 693 486 693 392 q 647 637 693 581 q 525 693 601 693 q 403 637 449 693 q 358 486 358 581 q 403 335 358 392 z "},"ö":{"ha":1051,"x_min":19,"x_max":1032,"o":"m 786 1103 q 767 1083 786 1103 q 692 1064 747 1064 q 598 1103 638 1064 q 558 1197 558 1142 q 598 1291 558 1251 q 692 1331 638 1331 q 786 1291 747 1331 q 825 1197 825 1251 q 786 1103 825 1142 m 456 1100 q 438 1082 456 1100 q 359 1064 419 1064 q 262 1100 299 1064 q 225 1197 225 1136 q 262 1294 225 1257 q 359 1331 299 1331 q 456 1294 419 1331 q 492 1197 492 1257 q 456 1100 492 1136 m 159 852 q 229 922 159 852 q 526 992 299 992 q 892 852 753 992 q 1032 485 1032 713 q 892 119 1032 258 q 526 -19 753 -19 q 159 119 299 -19 q 19 485 19 258 q 159 852 19 713 m 403 335 q 426 306 403 335 q 525 278 449 278 q 647 335 601 278 q 693 486 693 392 q 647 637 693 581 q 525 693 601 693 q 403 637 449 693 q 358 486 358 581 q 403 335 358 392 z "},"ø":{"ha":1051,"x_min":19,"x_max":1032,"o":"m 829 906 q 978 731 925 839 q 1032 486 1032 622 q 892 119 1032 258 q 525 -19 753 -19 q 365 1 440 -19 l 318 -92 l 142 -92 l 222 67 q 72 241 125 133 q 19 486 19 349 q 159 852 19 713 q 525 992 299 992 q 686 971 611 992 l 733 1063 l 910 1063 l 829 906 m 358 486 q 379 374 358 422 l 543 693 q 525 693 535 693 q 403 637 449 693 q 358 486 358 581 m 525 278 q 647 335 601 278 q 693 486 693 392 q 671 599 693 550 l 507 279 q 525 278 517 278 z "},"ù":{"ha":967,"x_min":40,"x_max":926,"o":"m 585 1049 l 408 1049 l 165 1311 l 378 1458 l 585 1049 m 594 972 l 925 972 l 925 422 q 796 110 925 239 q 483 -19 667 -19 q 170 110 300 -19 q 40 422 40 239 l 40 972 l 372 972 l 372 389 q 405 310 372 343 q 483 278 438 278 q 562 310 529 278 q 594 389 594 343 l 594 972 z "},"ú":{"ha":967,"x_min":40,"x_max":926,"o":"m 810 1311 l 567 1049 l 390 1049 l 597 1458 l 810 1311 m 594 972 l 926 972 l 926 422 q 797 110 926 239 q 483 -19 667 -19 q 170 110 300 -19 q 40 422 40 239 l 40 972 l 372 972 l 372 389 q 405 310 372 343 q 483 278 438 278 q 562 310 529 278 q 594 389 594 343 l 594 972 z "},"û":{"ha":967,"x_min":40,"x_max":926,"o":"m 483 1158 l 408 1049 l 126 1049 l 399 1344 l 567 1344 l 839 1049 l 558 1049 l 483 1158 m 594 972 l 925 972 l 925 422 q 796 110 925 239 q 483 -19 667 -19 q 170 110 300 -19 q 40 422 40 239 l 40 972 l 372 972 l 372 389 q 405 310 372 343 q 483 278 438 278 q 562 310 529 278 q 594 389 594 343 l 594 972 z "},"ü":{"ha":967,"x_min":40,"x_max":926,"o":"m 744 1103 q 725 1083 744 1103 q 650 1064 706 1064 q 556 1103 594 1064 q 517 1197 517 1142 q 556 1291 517 1251 q 650 1331 594 1331 q 744 1291 706 1331 q 783 1197 783 1251 q 744 1103 783 1142 m 413 1100 q 395 1082 413 1100 q 316 1064 376 1064 q 219 1100 256 1064 q 183 1197 183 1136 q 219 1294 183 1257 q 316 1331 256 1331 q 413 1294 376 1331 q 450 1197 450 1257 q 413 1100 450 1136 m 594 389 l 594 972 l 926 972 l 926 422 q 797 110 926 239 q 483 -19 667 -19 q 170 110 300 -19 q 40 422 40 239 l 40 972 l 372 972 l 372 389 q 405 310 372 343 q 483 278 438 278 q 562 310 529 278 q 594 389 594 343 z "},"ý":{"ha":1046,"x_min":-19,"x_max":1065,"o":"m 829 1311 l 586 1049 l 410 1049 l 617 1458 l 829 1311 m 675 972 l 1065 972 l 689 392 l 689 0 l 357 0 l 357 392 l -19 972 l 371 972 l 522 731 l 675 972 z "},"ÿ":{"ha":1046,"x_min":-19,"x_max":1065,"o":"m 783 1103 q 764 1083 783 1103 q 690 1064 744 1064 q 595 1103 635 1064 q 556 1197 556 1142 q 595 1291 556 1251 q 690 1331 635 1331 q 783 1291 744 1331 q 822 1197 822 1251 q 783 1103 822 1142 m 453 1100 q 435 1082 453 1100 q 356 1064 417 1064 q 259 1100 296 1064 q 222 1197 222 1136 q 259 1294 222 1257 q 356 1331 296 1331 q 453 1294 417 1331 q 489 1197 489 1257 q 453 1100 489 1136 m 675 972 l 1065 972 l 689 392 l 689 0 l 357 0 l 357 392 l -19 972 l 371 972 l 522 731 l 675 972 z "},"Đ":{"ha":1019,"x_min":21,"x_max":1000,"o":"m 860 843 q 999 486 999 711 q 860 129 999 261 q 493 0 722 0 l 88 0 l 88 394 l 22 394 l 22 560 l 88 560 l 88 972 l 493 972 q 860 843 722 972 m 493 292 q 617 343 572 292 q 661 486 661 394 q 617 629 661 578 q 493 681 572 681 l 418 681 l 418 560 l 485 560 l 485 394 l 418 394 l 418 292 l 493 292 z "},"đ":{"ha":1019,"x_min":21,"x_max":1000,"o":"m 860 843 q 999 486 999 711 q 860 129 999 261 q 493 0 722 0 l 88 0 l 88 394 l 22 394 l 22 560 l 88 560 l 88 972 l 493 972 q 860 843 722 972 m 493 292 q 617 343 572 292 q 661 486 661 394 q 617 629 661 578 q 493 681 572 681 l 418 681 l 418 560 l 485 560 l 485 394 l 418 394 l 418 292 l 493 292 z "},"Œ":{"ha":1438,"x_min":19,"x_max":1407,"o":"m 1025 292 l 1407 292 l 1407 0 l 693 0 l 693 3 q 525 -19 614 -19 q 159 119 299 -19 q 19 485 19 258 q 159 852 19 713 q 525 992 299 992 q 693 969 614 992 l 693 972 l 1379 972 l 1379 681 l 1025 681 l 1025 611 l 1311 611 l 1311 360 l 1025 360 l 1025 292 m 403 335 q 426 306 403 335 q 525 278 449 278 q 647 335 601 278 q 693 486 693 392 q 647 637 693 581 q 525 693 601 693 q 403 637 449 693 q 358 486 358 581 q 403 335 358 392 z "},"œ":{"ha":1438,"x_min":19,"x_max":1407,"o":"m 1025 292 l 1407 292 l 1407 0 l 693 0 l 693 3 q 525 -19 614 -19 q 159 119 299 -19 q 19 485 19 258 q 159 852 19 713 q 525 992 299 992 q 693 969 614 992 l 693 972 l 1379 972 l 1379 681 l 1025 681 l 1025 611 l 1311 611 l 1311 360 l 1025 360 l 1025 292 m 403 335 q 426 306 403 335 q 525 278 449 278 q 647 335 601 278 q 693 486 693 392 q 647 637 693 581 q 525 693 601 693 q 403 637 449 693 q 358 486 358 581 q 403 335 358 392 z "},"Š":{"ha":821,"x_min":8,"x_max":797,"o":"m 488 1049 l 319 1049 l 47 1344 l 329 1344 l 403 1236 l 478 1344 l 760 1344 l 488 1049 m 376 725 q 407 683 376 704 q 484 641 438 661 q 584 587 531 621 q 683 513 638 553 q 760 407 729 472 q 792 263 792 342 q 774 162 792 210 q 718 72 756 114 q 613 5 681 29 q 456 -19 546 -19 q 28 64 232 -19 l 10 71 l 110 326 l 128 318 q 178 294 143 311 q 242 263 213 276 q 308 233 271 249 q 373 207 344 217 q 426 193 401 197 q 465 196 451 189 q 479 221 479 203 q 449 272 479 244 q 372 324 418 299 q 272 385 326 349 q 172 463 218 422 q 96 565 126 503 q 65 700 65 628 q 96 822 65 765 q 174 915 126 879 q 278 972 222 951 q 388 992 335 992 q 591 971 506 992 q 779 908 676 950 l 797 901 l 697 646 l 679 654 q 482 739 519 726 q 376 725 376 774 z "},"š":{"ha":821,"x_min":8,"x_max":797,"o":"m 488 1049 l 319 1049 l 47 1344 l 329 1344 l 403 1236 l 478 1344 l 760 1344 l 488 1049 m 376 725 q 407 683 376 704 q 484 641 438 661 q 584 587 531 621 q 683 513 638 553 q 760 407 729 472 q 792 263 792 342 q 774 162 792 210 q 718 72 756 114 q 613 5 681 29 q 456 -19 546 -19 q 28 64 232 -19 l 10 71 l 110 326 l 128 318 q 178 294 143 311 q 242 263 213 276 q 308 233 271 249 q 373 207 344 217 q 426 193 401 197 q 465 196 451 189 q 479 221 479 203 q 449 272 479 244 q 372 324 418 299 q 272 385 326 349 q 172 463 218 422 q 96 565 126 503 q 65 700 65 628 q 96 822 65 765 q 174 915 126 879 q 278 972 222 951 q 388 992 335 992 q 591 971 506 992 q 779 908 676 950 l 797 901 l 697 646 l 679 654 q 482 739 519 726 q 376 725 376 774 z "},"Ÿ":{"ha":1046,"x_min":-19,"x_max":1065,"o":"m 783 1103 q 764 1083 783 1103 q 690 1064 744 1064 q 595 1103 635 1064 q 556 1197 556 1142 q 595 1291 556 1251 q 690 1331 635 1331 q 783 1291 744 1331 q 822 1197 822 1251 q 783 1103 822 1142 m 453 1100 q 435 1082 453 1100 q 356 1064 417 1064 q 259 1100 296 1064 q 222 1197 222 1136 q 259 1294 222 1257 q 356 1331 296 1331 q 453 1294 417 1331 q 489 1197 489 1257 q 453 1100 489 1136 m 675 972 l 1065 972 l 689 392 l 689 0 l 357 0 l 357 392 l -19 972 l 371 972 l 522 731 l 675 972 z "},"Ž":{"ha":829,"x_min":35,"x_max":793,"o":"m 499 1049 l 329 1049 l 57 1344 l 339 1344 l 414 1236 l 489 1344 l 771 1344 l 499 1049 m 792 972 l 792 693 l 435 292 l 792 292 l 792 0 l 36 0 l 36 279 l 393 681 l 36 681 l 36 972 l 792 972 z "},"ž":{"ha":829,"x_min":35,"x_max":793,"o":"m 499 1049 l 329 1049 l 57 1344 l 339 1344 l 414 1236 l 489 1344 l 771 1344 l 499 1049 m 792 972 l 792 693 l 435 292 l 792 292 l 792 0 l 36 0 l 36 279 l 393 681 l 36 681 l 36 972 l 792 972 z "},"–":{"ha":694,"x_min":33,"x_max":661,"o":"m 660 271 l 33 271 l 33 394 l 660 394 l 660 271 z "},"—":{"ha":1121,"x_min":33,"x_max":1088,"o":"m 1088 271 l 33 271 l 33 394 l 1088 394 l 1088 271 z "},"‘":{"ha":293,"x_min":39,"x_max":256,"o":"m 167 832 q 229 797 206 825 q 253 728 253 769 q 223 650 253 679 q 145 621 193 621 q 68 650 97 621 q 39 728 39 679 q 91 880 39 813 q 222 993 143 947 l 256 963 q 167 832 182 903 z "},"’":{"ha":292,"x_min":36,"x_max":254,"o":"m 69 963 q 84 978 69 963 q 147 993 99 993 q 224 963 194 993 q 254 886 254 933 q 201 733 254 800 q 71 621 149 667 l 38 651 q 125 781 110 711 q 63 816 86 788 q 40 886 40 844 q 69 963 40 933 z "},"“":{"ha":565,"x_min":39,"x_max":528,"o":"m 439 832 q 501 797 478 825 q 525 728 525 769 q 495 650 525 679 q 417 621 465 621 q 340 650 369 621 q 311 728 311 679 q 363 880 311 813 q 494 993 415 947 l 528 963 q 439 832 454 903 m 256 963 q 167 832 182 903 q 229 797 206 825 q 253 728 253 769 q 223 650 253 679 q 145 621 193 621 q 68 650 97 621 q 39 728 39 679 q 91 880 39 813 q 222 993 143 947 l 256 963 z "},"”":{"ha":564,"x_min":36,"x_max":526,"o":"m 313 886 q 342 963 313 933 q 419 993 371 993 q 497 963 467 993 q 526 886 526 933 q 474 733 526 800 q 343 621 421 667 l 310 651 q 397 781 382 711 q 335 816 358 788 q 313 886 313 844 m 40 886 q 69 963 40 933 q 147 993 99 993 q 224 963 194 993 q 254 886 254 933 q 201 733 254 800 q 71 621 149 667 l 38 651 q 125 781 110 711 q 63 816 86 788 q 40 886 40 844 z "},"„":{"ha":558,"x_min":32,"x_max":522,"o":"m 36 111 q 65 188 36 158 q 142 218 94 218 q 220 188 190 218 q 250 111 250 158 q 197 -42 250 25 q 67 -154 144 -108 l 33 -124 q 121 6 106 -64 q 59 41 82 13 q 36 111 36 69 m 308 111 q 338 188 308 158 q 415 218 367 218 q 492 188 463 218 q 522 111 522 158 q 469 -42 522 25 q 339 -154 417 -108 l 306 -124 q 393 6 378 -64 q 331 41 354 13 q 308 111 308 69 z "},"†":{"ha":517,"x_min":33,"x_max":488,"o":"m 361 688 l 486 689 l 483 651 q 479 574 479 611 l 479 539 l 368 540 l 343 542 l 322 81 l 289 82 q 239 82 261 82 q 189 82 215 82 l 151 81 l 171 483 l 172 542 l 117 540 l 33 539 l 38 578 q 42 654 40 613 l 42 689 l 76 689 q 179 688 143 688 l 186 861 l 219 861 q 270 860 240 860 q 319 861 300 860 l 357 863 l 349 688 l 361 688 z "},"•":{"ha":356,"x_min":36,"x_max":318,"o":"m 178 508 q 277 468 236 508 q 318 369 318 428 q 277 270 318 311 q 178 229 236 229 q 78 269 119 229 q 38 368 38 310 q 78 467 36 426 q 178 508 119 508 z "},"…":{"ha":1118,"x_min":33,"x_max":1083,"o":"m 114 174 q 170 150 149 174 q 192 89 192 126 q 170 29 192 53 q 114 6 149 6 q 56 29 79 6 q 35 89 33 53 q 57 150 35 126 q 114 174 79 174 m 946 150 q 957 162 946 150 q 1003 174 968 174 q 1060 150 1039 174 q 1082 89 1082 126 q 1060 29 1082 53 q 1001 6 1039 6 q 945 29 967 6 q 924 89 924 53 q 946 150 924 126 m 560 174 q 615 150 594 174 q 638 89 636 126 q 615 29 638 53 q 558 6 593 6 q 500 29 522 6 q 479 89 478 53 q 501 150 479 126 q 560 174 524 174 z "},"‰":{"ha":1567,"x_min":33,"x_max":1533,"o":"m 719 954 l 896 954 l 358 21 l 183 21 l 719 954 m 443 733 q 388 554 443 617 q 239 492 333 492 q 89 554 144 492 q 33 733 33 617 q 89 915 33 851 q 239 978 144 978 q 388 915 333 978 q 443 733 443 851 m 199 822 q 192 810 199 822 q 185 734 185 797 q 199 646 185 671 q 239 621 213 621 q 292 734 292 621 q 239 847 292 847 q 199 822 213 847 m 716 434 q 744 466 716 434 q 866 497 772 497 q 1015 434 960 497 q 1069 254 1069 371 q 1015 73 1069 136 q 866 10 960 10 q 716 74 772 10 q 660 254 660 138 q 716 434 660 371 m 865 140 q 919 253 919 140 q 865 367 919 367 q 825 342 839 367 q 811 254 811 317 q 825 166 811 192 q 865 140 839 140 m 1178 434 q 1207 466 1178 434 q 1328 497 1235 497 q 1477 434 1422 497 q 1532 254 1532 371 q 1477 73 1532 136 q 1328 10 1422 10 q 1178 74 1235 10 q 1122 254 1122 138 q 1178 434 1122 371 m 1328 140 q 1382 253 1382 140 q 1328 367 1382 367 q 1288 342 1301 367 q 1274 254 1274 317 q 1288 166 1274 192 q 1328 140 1301 140 z "},"‹":{"ha":431,"x_min":31,"x_max":401,"o":"m 200 357 l 400 81 l 231 81 l 31 357 l 231 632 l 399 632 l 200 357 z "},"›":{"ha":429,"x_min":28,"x_max":399,"o":"m 199 632 l 397 357 l 199 81 l 29 81 l 229 357 l 28 632 l 199 632 z "},"€":{"ha":924,"x_min":40,"x_max":896,"o":"m 699 251 l 715 269 l 890 167 l 869 140 q 727 23 811 64 q 549 -18 643 -18 q 311 60 417 -18 q 164 260 206 138 l 40 260 l 40 401 l 144 401 l 144 481 l 40 481 l 40 622 l 151 622 q 291 856 179 763 q 549 950 403 950 q 731 906 644 950 q 875 785 818 863 l 894 757 l 719 656 l 703 675 q 549 747 642 747 q 435 713 486 747 q 363 622 385 678 l 458 622 l 458 481 l 347 481 l 347 401 l 458 401 l 458 260 l 392 260 q 549 185 453 185 q 699 251 638 185 z "}}}
